<?xml version="1.0" standalone="no"?>
<!DOCTYPE svg PUBLIC "-//W3C//DTD SVG 1.1//EN" "http://www.w3.org/Graphics/SVG/1.1/DTD/svg11.dtd" >
<svg xmlns="http://www.w3.org/2000/svg" xmlns:xlink="http://www.w3.org/1999/xlink" version="1.1">
<metadata></metadata>
<defs>
<font id="wolf_in_the_cityregular" horiz-adv-x="440" >
<font-face units-per-em="2048" ascent="1536" descent="-512" />
<missing-glyph horiz-adv-x="245" />
<glyph horiz-adv-x="0" />
<glyph horiz-adv-x="682" />
<glyph unicode=" "  horiz-adv-x="245" />
<glyph unicode="&#x09;" horiz-adv-x="245" />
<glyph unicode="&#xa0;" horiz-adv-x="245" />
<glyph unicode="!" horiz-adv-x="491" d="M61 20q0 4 9.5 24.5t9.5 55.5q0 5 -4 17q18 0 28 -2q33 -5 39 -11q0 -2 2 -4q1 -2 2 -5t2 -5t1 -4q0 -3 -8 -12.5t-16.5 -28.5t-8.5 -45q0 -10 2 -12h-7h-11t-10.5 1t-11.5 3t-9 5.5t-7 9t-2 13.5zM109 135q0 21 38.5 170t85 329.5t60.5 250.5q12 46 12 139q9 2 26 -2 t37 -14.5t36 -28.5t23 -44t-3 -61l-18 -63q-77 -220 -150 -391.5t-104 -231.5l-31 -59q-8 0 -10 2t-2 4z" />
<glyph unicode="'" horiz-adv-x="196" d="M123 604q1 2 9 8.5t22.5 20t27.5 31.5q41 55 41 118q0 46 -8 82h6q3 0 7.5 1t7.5 1q51 0 51 -61q0 -37 -15.5 -72.5t-38 -60t-46 -43.5t-40 -28t-20.5 -9q3 -1 1 1q-5 7 -5 11z" />
<glyph unicode="(" horiz-adv-x="329" d="M97.5 343.5q9.5 131.5 48.5 262.5t98 221q49 79 65 92q20 15 39 3q10 -4 10.5 -16t-9 -36.5t-25.5 -59.5l-3 -6l-3 -6t-3 -7q-68 -144 -107.5 -317.5t-30 -324t82.5 -196.5q48 -32 46 -50q-2 -17 -41 4q-12 6 -25 15q-81 55 -116.5 172.5t-26 249z" />
<glyph unicode=")" horiz-adv-x="200" d="M-72 904q0 13 11 18q22 15 42 -5t57 -81q3 -6 5 -9q59 -90 98 -221t48.5 -262.5t-26 -249t-116.5 -172.5q-49 -33 -63 -24q-13 8 19 37q11 9 24 18q55 35 74 132.5t5 219t-49.5 251t-85.5 235.5q-42 96 -43 113z" />
<glyph unicode="*" horiz-adv-x="270" d="M119 715v12q0 12 4 16q4 2 6 5q3 5 92 10q29 74 29 94q0 -1 9.5 -2.5t17.5 -9.5t8 -25q0 -3 -1.5 -6.5t-7.5 -16.5t-14 -34q82 4 88 10v-35q0 -6 -1 -9.5t-6.5 -7t-16.5 -3.5q-15 0 -21 2q-6 0 -24.5 1t-32.5 1q-29 -85 -29 -101q-45 11 -45 35v2q0 1 1.5 4t9 19.5 t18.5 42.5q-69 0 -82 -8q-2 0 -2 4zM121 780q8 2 76 -47q-49 -26 -54 -31q-14 -16 -11.5 -25.5t8.5 -17t5 -8.5q24 23 82 58q13 -9 32 -23q43 -31 48 -30q3 1 6 1q4 0 15 11q1 1 3 4t3 4q2 2 2 6q-19 4 -70 45q43 23 63 32l2 1l-1 2q4 4 6 8.5t2.5 8.5t-1 8.5t-3 7.5t-4.5 7 t-5 5.5t-5 4.5l-3 3q-2 -2 -14 -10.5t-32.5 -23t-37.5 -27.5q-38 30 -45 41q-10 10 -12 14q-20 15 -33 -2q-3 -3 -7 -9.5t-7 -9.5z" />
<glyph unicode="+" horiz-adv-x="487" d="M59 389q0 20 9 29q5 3 8 7q4 6 65 9q46 2 80 4q47 115 47 150q1 -3 15 -5.5t26.5 -15t12.5 -39.5q0 -3 -0.5 -5t-3 -7.5t-5.5 -12.5t-9.5 -24t-14.5 -39q126 4 137 15v-19q0 -4 1 -16t1 -19q0 -15 -7.5 -23.5t-31.5 -8.5q-21 0 -33 2q-13 1 -44.5 2t-47.5 2 q-45 -137 -45 -158q-17 0 -44.5 14t-27.5 39q0 3 4 10q13 22 44 97q-113 0 -132 -12q-2 2 -2 8q-2 2 -2 16z" />
<glyph unicode="," horiz-adv-x="434" d="M92 -96q64 64 64 159q0 4 -1 12.5t-1 12.5q18 0 28 -2q31 -4 39 -12q0 -2 2 -4l1 -4q1 -3 1 -7q0 -8 -8 -34t-21.5 -57.5t-36 -56t-46.5 -24.5q-14 0 -21 17z" />
<glyph unicode="-" horiz-adv-x="507" d="M66 401q0 35 67 35q100 0 143 2q148 4 158 17v-19q0 -4 1 -16.5t1 -20.5q0 -15 -8 -22.5t-35 -7.5q-10 1 -32 2t-33 2q-78 4 -135 4q-97 0 -121 -12l-4 12q-2 4 -2 24z" />
<glyph unicode="." horiz-adv-x="219" d="M68 -49q0 4 10 26.5t10 55.5q0 2 -4 14q19 0 29 -2q31 -5 39 -12q0 -2 2 -4q0 -1 1 -4t1 -7q0 -5 -8 -14.5t-15.5 -27.5t-7.5 -44q0 -12 2 -14h-12q-47 0 -47 33z" />
<glyph unicode="/" horiz-adv-x="462" d="M55 -78q4 15 60 229t106.5 414t54.5 230q7 87 7 88q11 -6 29.5 -11.5t33 -9t31 -11t24 -18t11 -29.5t-8.5 -46q-50 -164 -135.5 -377.5t-141 -341t-52.5 -127.5q-6 0 -8 2q-5 0 -9 4q-2 2 -2 4z" />
<glyph unicode="0" horiz-adv-x="813" d="M70 246q0 68 11.5 131.5t28.5 106.5t34 76t28.5 51t11.5 20t2 4q6 6 9 6q10 0 10 -12q0 -5 -22 -53.5t-44 -133t-22 -174.5q0 -47 10 -95t30.5 -95t60 -76t91.5 -29q75 0 138 52.5t102 134t60.5 173.5t21.5 177q0 278 -180 278q-54 0 -89 -20q-38 -23 -49 -23 q-23 0 -47.5 26.5t-37.5 52t-13 30.5l94 39q66 29 129 29q79 0 140 -33t96 -87.5t52 -116.5t17 -128q0 -73 -14.5 -157t-48.5 -173.5t-82 -161t-122.5 -117.5t-162.5 -46q-59 0 -104.5 26t-71 64t-41.5 87.5t-21 89.5t-5 77z" />
<glyph unicode="1" horiz-adv-x="606" d="M47 231q30 14 61.5 48t64 87.5t59 103t65 124t63.5 119.5l70 129q5 16 31 50t45 34q27 0 31.5 -29t-5.5 -70q-19 -117 -45 -249q-45 -205 -85 -364t-59.5 -222.5t-23.5 -63.5q-10 0 -10 11q0 20 16.5 107.5t43.5 237.5t45 283q-55 -129 -110.5 -232t-82.5 -130l2 -2 q-35 -37 -67 -37q-19 0 -46 15t-45 30.5t-18 19.5z" />
<glyph unicode="2" horiz-adv-x="903" d="M74 805q16 2 61 20q199 93 359 93q104 0 176.5 -54.5t72.5 -111.5q0 -7 -2 -9h-2q-17 -13 -78.5 -60.5t-96 -75.5t-89.5 -72.5t-102 -86.5t-90 -83q-46 -44 -74.5 -105t-28.5 -119q0 -91 70 -156t164 -65q66 0 123.5 23t97 61t68 85.5t42 96t13.5 93.5q0 48 -12 88 t-29 64t-33.5 41t-28.5 25t-12 9l-4 4q-4 4 -4 8q0 10 8 10q1 0 4 -1t4 -1h2q40 -6 93 -83.5t53 -180.5q0 -50 -14.5 -104.5t-47 -110t-77.5 -100t-112 -72t-145 -27.5q-54 0 -108.5 21t-100.5 59.5t-75 98.5t-29 131q0 51 15.5 101.5t34 86.5t54.5 79t57.5 64t62.5 58.5 t51 46.5q222 204 270 240q-40 16 -82 16q-52 0 -112.5 -22.5t-105.5 -50t-91.5 -50t-73.5 -22.5q-31 0 -63.5 43.5t-32.5 56.5z" />
<glyph unicode="3" horiz-adv-x="927" d="M104 244q0 67 12.5 113t12.5 85q0 6 -1 13t-1 10q2 -2 38 -6.5t65.5 -25.5t29.5 -66q0 -19 -2 -25h-2q-20 -56 -20 -111q0 -37 11.5 -71t36 -64.5t68.5 -48.5t103 -18q130 0 221.5 93.5t91.5 231.5q0 103 -53.5 168.5t-149.5 65.5q-24 0 -46 -5t-34.5 -10.5t-13.5 -5.5 q-16 0 -16 13q0 8 4 11.5t12 6t25.5 15t40.5 32t61 62.5t82 102l6 8q-58 -13 -126.5 -38.5t-115.5 -48t-86 -42l-41 -20.5v-2q-41 -21 -61 -21q-22 0 -47 22.5t-39 44.5t-14 27q22 3 61 27q10 4 41 22h2q293 132 496 132q8 0 17.5 -1.5t26 -12.5t21.5 -29q-56 -81 -127 -147 t-133 -107q33 0 67.5 -9t71 -30.5t65 -54.5t46.5 -85.5t18 -117.5q0 -97 -48 -186.5t-140.5 -149.5t-206.5 -60q-78 0 -143 30.5t-104.5 78t-61 101t-21.5 104.5z" />
<glyph unicode="4" horiz-adv-x="792" d="M72 119q0 41 10 71q40 116 101 233.5t111 189.5t96 135t52 75q38 61 45 90q4 0 25.5 -15t44.5 -41t23 -48q0 -18 -17 -49q-152 -186 -256 -334q-34 -48 -54 -77t-48 -76.5t-41.5 -88t-13.5 -75.5q0 -49 47 -64q76 -10 278 -25q3 102 15 192.5t12 125.5q0 4 -1 11.5 t-1 10.5q1 -1 23 -5t46 -10t44 -26.5t20 -50.5q0 -16 -2 -22h2q-14 -25 -27.5 -63t-29.5 -89.5t-25 -75.5q79 -6 129 -6h47q2 0 4 -2q4 -4 4 -10q0 -10 -27.5 -13.5t-106.5 -6.5q-40 -2 -62 -3q-11 -34 -25 -78q-12 -37 -16.5 -46t-12.5 -9q-10 1 -12 8.5t-2 28.5q0 55 2 94 q-99 -6 -219 -6q-125 0 -166 78q-16 30 -16 72z" />
<glyph unicode="5" horiz-adv-x="907" d="M86 311q0 55 9 92t20 53t22.5 47.5t14.5 76.5q17 0 62.5 -31.5t45.5 -69.5q0 -22 -10 -51h-2q-37 -80 -37 -154q0 -98 65 -171.5t170 -73.5q86 0 160 50t115 127.5t41 160.5q0 50 -17.5 89.5t-41.5 60.5t-54 34.5t-51 17.5t-37 4q-6 0 -58 -5t-104 -5q-18 0 -42 4.5 t-56.5 17t-54 42t-21.5 71.5q0 24 12.5 58t14.5 43q17 50 41.5 79t43.5 34.5t38.5 7t21.5 2.5q101 -7 346 -7q26 0 35 3q-3 -3 -4.5 -27t-5 -47.5t-28.5 -43.5t-70 -20h-2q-32 0 -114.5 19.5t-123.5 19.5q-59 0 -93 -30t-38 -103q6 -31 29.5 -48.5t48 -21t57 -6t41.5 -4.5 q64 -6 82 -6q13 0 25 -0.5t40 -6t51 -14.5t50.5 -28t46.5 -45.5t32 -69t13 -94.5t-16 -108t-48.5 -109.5t-77 -96t-106.5 -68.5t-131 -26q-87 0 -156 33t-110 88t-62.5 120.5t-21.5 135.5z" />
<glyph unicode="6" horiz-adv-x="874" d="M104 236q0 15 1 29t4 30t5 27t7 28t7 24.5t9.5 26.5t9 23t9.5 24t8 21q57 104 111.5 187.5t85.5 122t55 73t33 61.5q3 0 24.5 -15t44.5 -41t23 -48q0 -21 -15.5 -46t-58 -73.5t-57.5 -68.5q28 4 34 4q21 8 54 8q114 0 202 -84.5t88 -224.5q0 -100 -49 -189.5t-138.5 -146 t-197.5 -56.5q-122 0 -210.5 85.5t-88.5 218.5zM215 197q0 -73 60 -123.5t143 -50.5q104 0 192 72.5t105 174.5q6 30 6 64q0 113 -64 179.5t-184 66.5q-49 0 -108 -17q-150 -199 -150 -366z" />
<glyph unicode="7" horiz-adv-x="800" d="M59 879q28 0 66 10l43 12q190 57 313 57q85 0 176 -24q2 -1 23.5 -12t31 -18t20.5 -23.5t11 -36.5q0 -8 -1.5 -17.5t-5.5 -20.5t-7 -19t-10.5 -21.5t-10.5 -19.5t-12.5 -21t-11.5 -18.5t-12 -18.5l-10 -16q-146 -229 -274.5 -412t-181 -252t-52.5 -71q-8 0 -11 6 q-2 2 -2 6q0 13 61.5 114.5t166.5 275t178 308.5q63 114 90 180q-49 17 -111 17q-21 0 -49 -4q-92 -10 -164 -30t-107.5 -35t-45.5 -15q-17 0 -31.5 8.5t-24.5 20.5t-19 27.5t-13.5 28t-8.5 23t-4 11.5z" />
<glyph unicode="8" horiz-adv-x="831" d="M119 229q0 123 80 236q20 27 43 48t40 31t33.5 16.5t24 7.5t10.5 1q8 0 8 -10q0 -3 -13 -9.5t-33 -19t-42.5 -33t-45 -59.5t-36.5 -90q-18 -44 -18 -88q0 -96 63 -168t164 -72q122 0 182 77.5t60 195.5q0 56 -29.5 105t-63.5 75t-73.5 51.5t-46.5 32.5h-2l-9 9 q-30 30 -45.5 48t-31.5 51.5t-16 69.5q0 60 35 103t79.5 60t89.5 17q77 0 115.5 -42t38.5 -91q0 -24 -4.5 -40.5t-11 -24t-13.5 -11t-11.5 -4.5t-4.5 -2q0 -2 2 -2q-3 0 -6 9q-1 2 -2 4.5t-1.5 3.5t-0.5 2v2q1 1 4 10q6 24 6 35q0 31 -19.5 52.5t-66.5 21.5 q-56 0 -86.5 -28.5t-30.5 -53.5q0 -17 8 -32t24.5 -29.5t27.5 -22t32 -21.5q34 -24 59 -43.5t59 -53.5t55.5 -67t37 -78.5t15.5 -93.5q0 -180 -93 -279t-241 -99q-71 0 -130 27.5t-94.5 71t-55 94t-19.5 99.5z" />
<glyph unicode="9" horiz-adv-x="808" d="M45 -96q12 5 53 37l16 12t19 14q23 22 83 77t107.5 101t90.5 93q-14 -2 -45 -2q-98 0 -167 41t-99.5 102.5t-30.5 136.5q0 103 47 192.5t138 146t206 56.5q110 -5 193 -78t83 -196q0 -67 -19.5 -133.5t-56 -127.5t-64.5 -99t-69 -87q-186 -216 -313 -331l-2 -2 q-2 0 -6 -4q-25 -23 -53 -23q-22 0 -49.5 18t-44.5 35.5t-17 20.5zM133 512q0 -65 23 -113.5t61.5 -74t78.5 -37t83 -11.5q12 0 57 5q61 18 154 188q51 90 51 176q0 78 -54 130t-149 52q-127 0 -216 -94t-89 -221z" />
<glyph unicode=":" horiz-adv-x="374" d="M127 117q0 4 10 26.5t10 55.5q0 2 -4 14q19 0 29 -2q32 -5 39 -12q0 -2 2 -4q0 -1 1 -4t1 -7q0 -5 -7.5 -14.5t-15.5 -27.5t-8 -44q0 -12 2 -14h-12q-47 0 -47 33zM180 346q0 4 10.5 26.5t10.5 55.5q0 2 -4 14q18 0 28 -2q31 -4 39 -12q0 -2 2 -4l1 -3q1 -3 1 -7 q0 -5 -7.5 -14.5t-15 -27.5t-7.5 -44q0 -13 2 -15h-13q-47 0 -47 33z" />
<glyph unicode="=" horiz-adv-x="561" d="M66 272q0 35 67 35q100 0 143 2q148 4 158 17v-19q0 -5 1 -17t1 -20q0 -15 -8 -22.5t-35 -7.5q-10 1 -32 2t-33 2q-78 4 -135 4q-97 0 -121 -12l-4 12q-2 4 -2 24zM66 401q0 35 67 35q100 0 143 2q148 4 158 17v-19q0 -4 1 -16.5t1 -20.5q0 -15 -8 -22.5t-35 -7.5 q-10 1 -32 2t-33 2q-78 4 -135 4q-97 0 -121 -12l-4 12q-2 4 -2 24z" />
<glyph unicode="?" horiz-adv-x="727" d="M96 653q0 109 53 199t160 125q38 14 92 14q108 0 182 -71.5t74 -176.5q0 -76 -42.5 -148t-93.5 -116t-113.5 -94.5t-83.5 -75.5q-29 -34 -48.5 -64t-27 -48.5t-11.5 -33.5t-4 -22t-3 -10.5t-11 -3.5q-12 0 -12 12q0 35 42.5 122.5t123.5 158.5q207 173 207 311 q0 76 -47.5 117t-110.5 41q-54 0 -95 -21.5t-62 -55.5t-30.5 -68.5t-9.5 -67.5q0 -128 88 -201q-8 -5 -21 -12.5t-44 -19.5t-51 -11q-28 0 -60 51v2q-15 0 -28 64t-13 104zM160 18q0 4 10 26.5t10 57.5q0 3 -4 15q6 0 15.5 -1t24 -3.5t24.5 -9t10 -15.5q0 -5 -9 -15.5 t-17.5 -29.5t-8.5 -45q0 -10 2 -12h-12q-45 0 -45 32z" />
<glyph unicode="A" horiz-adv-x="1212" d="M33 279q0 77 41 135t99.5 87t127.5 38q216 24 461 24q50 80 114.5 146t123.5 104t109 58t83 20q28 0 40.5 -15t12.5 -65q0 -21 -24.5 -63.5t-63 -101.5t-57.5 -97q96 0 128 -17t32 -47q0 -20 -5 -65q-2 -10 -2 -33q-25 18 -58.5 24t-87.5 7t-69 2q-84 -181 -84 -270 q0 -45 26 -75t77 -30q17 0 78 16q26 11 46 21.5t31 17.5t18 12.5t10.5 8t4.5 2.5q5 0 10 -4t5 -8v2q-1 0 -7.5 -9t-20 -22.5t-34 -29t-55 -30t-76.5 -22.5q-20 -4 -25 -4q-51 0 -102 42t-51 99q0 125 51 291q-19 0 -133 14q-18 -29 -53 -85t-62.5 -101.5t-50.5 -85.5 q-51 -90 -139 -159.5t-183 -69.5q-69 0 -131 47q-71 49 -113 128.5t-42 162.5zM96 281q0 -99 71.5 -178.5t151.5 -79.5q35 0 68.5 14t64 42.5t56.5 59t54 76t47 79.5t46.5 84.5t42.5 76.5q-202 26 -331 26q-59 0 -121 -6q-69 -10 -109.5 -66.5t-40.5 -127.5zM891 561 q16 -1 47 -2t47 -2q33 90 70 166q-89 -63 -164 -162z" />
<glyph unicode="B" horiz-adv-x="913" d="M35 614q0 15 4 35q3 9 6 15q4 8 21.5 27t54 46.5t82.5 54t114.5 51t141.5 36.5l-2 -2q37 6 80 6q120 0 205 -60.5t85 -167.5q0 -36 -17.5 -77.5t-41.5 -67.5q70 -24 97.5 -54.5t27.5 -88.5q0 -106 -141 -289q18 -6 24 -6q2 0 2 2q2 0 4 -2q6 -6 6 -9q0 -6 -6 -12 q-2 -2 -6 -2t-10 0.5t-16 1.5t-19 2q-55 -65 -121.5 -105t-134.5 -40q-57 0 -103 25.5t-46 62.5q0 32 27 53.5t71 29.5t73 10.5t58 2.5q36 0 98 -4q49 64 93.5 149t44.5 132q0 49 -148 49q-90 0 -260 -35q-19 -45 -57 -136.5t-52 -123.5q-5 -13 -12 -37q-12 -50 -12 -100 q-8 0 -25.5 6t-38 28t-20.5 54q0 36 21.5 124t43.5 150q-10 0 -33.5 45.5t-23.5 65.5q0 4 2.5 7t7.5 6t10.5 5.5t14 4.5t15 3.5t17 3.5t16.5 3t16 2t14 2q8 22 23.5 57.5t19.5 46.5l14 43q16 50 16 68q1 -1 15.5 -6t30 -12.5t32 -19t27 -28t10.5 -35.5q0 -15 -1 -21.5 t-6.5 -21t-18.5 -41.5q61 9 124 9q68 0 127 -11q48 59 48 123q0 62 -51.5 92.5t-112.5 30.5q-36 0 -75 -8.5t-61 -16t-59.5 -24t-46.5 -19.5q-53 -29 -96.5 -60t-68.5 -54.5t-42 -43t-25 -30t-10 -10.5q-65 46 -65 110zM377 0q0 -7 65 -25q98 0 183 82q-66 0 -157 -18 t-91 -39z" />
<glyph unicode="C" horiz-adv-x="733" d="M25 184v9q0 116 48 237q50 126 133 225.5t198.5 163.5t234.5 64q110 0 172.5 -33t67.5 -78q0 -10 -2 -12q-41 -66 -66.5 -124.5t-32 -90t-10.5 -54t-8 -26.5l-4 -2q-81 8 -111 59q-15 21 -18 53q0 60 63 168q-28 7 -53 7q-80 0 -172 -49.5t-167.5 -128t-126 -185.5 t-50.5 -211q0 -99 36.5 -154t131.5 -55q98 0 197 51.5t159 124.5q38 45 63 84.5t33.5 60t14 35.5t10 20t14.5 5q11 0 12 -12q0 -44 -56.5 -141.5t-162.5 -178.5q-156 -116 -305 -116q-105 0 -174 82t-69 202z" />
<glyph unicode="D" horiz-adv-x="1011" d="M18 614q0 43 18.5 65.5t96.5 76.5h2q246 149 430 149q113 0 208.5 -51.5t153.5 -147.5t58 -217q0 -127 -55.5 -241.5t-142 -191.5t-191 -122t-203.5 -45q-60 0 -121 11.5t-110 41t-49 70.5q0 27 31.5 41.5t62.5 14.5q0 63 37 178.5t79.5 224.5t47.5 129l14 43 q16 50 16 68q13 -4 25.5 -9t37 -17t39.5 -32.5t15 -44.5t-10 -47q-40 -66 -121.5 -258.5t-87.5 -245.5q18 -6 38 -14t31 -13t13 -5v2l4 -4q6 -6 6 -9q0 -12 -12 -12q-4 0 -16 4l-31.5 10.5t-36.5 10.5q-2 -14 -2 -41q-24 5 -33 10q-40 18 -47 39q-61 -3 -61 -21 q0 -27 70.5 -47t135.5 -20q137 0 263.5 72.5t195.5 207.5q70 110 70 240q0 142 -84 227.5t-203 85.5q-88 0 -168 -26q-80 -34 -143.5 -72t-98.5 -68.5t-58.5 -56t-33.5 -39.5t-12 -14q-68 48 -68 110z" />
<glyph unicode="E" horiz-adv-x="1214" d="M25 412q0 109 46.5 207t141.5 167q147 86 332 86q35 0 75 -3t65.5 -6t70 -9t59.5 -8q144 -21 227 -21q63 0 118 8t88 18.5t57.5 21.5t37 18t15.5 6q22 -46 22 -78q0 -36 -22 -67q-12 -17 -21 -23q-18 -14 -79 -27.5t-148 -13.5q-64 0 -201 19q4 -20 4 -23 q-11 -5 -33 -16.5t-34 -16.5q-65 -30 -103 -65q277 -60 277 -68h2q4 -4 4 -12t-6 -14l-4 -3v3q-15 -5 -119 -5q-35 0 -116 1t-122 1q-106 -139 -106 -278q0 -95 48.5 -164t141.5 -76q72 3 138 24.5t114 52.5t88.5 69t67 74.5t45.5 69t27 52t8 23.5q0 2 2 4q4 4 10 4 q12 0 12 -10q0 -64 -46.5 -142.5t-117 -143.5t-161 -109.5t-170.5 -44.5q-138 0 -223.5 101.5t-85.5 240.5q0 129 67 256q-40 0 -51.5 16.5t-11.5 46.5v43q0 14 2 20q13 -9 50.5 -14.5t55.5 -5.5v-2q3 0 8.5 1t8.5 1q62 91 139 145q-121 27 -219 27q-82 0 -155 -22.5 t-133 -67t-95 -120.5t-35 -175q0 -140 77 -219.5t181 -79.5q15 0 29.5 2t23 4t10.5 2q15 0 15 -12q0 -4 -7 -9t-32.5 -10.5t-65.5 -5.5q-33 0 -68 9t-75.5 34t-71.5 63.5t-52 103t-21 145.5z" />
<glyph unicode="F" horiz-adv-x="786" d="M29 397q0 109 46.5 206.5t141.5 166.5q144 84 330 84q128 0 295.5 -22.5t201.5 -22.5q63 0 74 4q72 7 129.5 24t83.5 30.5t27 13.5q2 0 4 -2t4 -6.5t3.5 -8.5t3.5 -11t3 -11q3 -18 6 -39q0 -37 -22 -68q-11 -14 -21 -22q-18 -14 -79 -27.5t-148 -13.5q-96 0 -233 24 q-19 -31 -19 -32q157 -41 187 -56h2l2 -2q2 -2 2 -12q0 -8 -4 -12l-5 -4l-2 2q-1 1 -33 0t-88 -2h-53h-47q-10 -25 -45 -114t-57 -140q-68 -172 -115 -246q-109 -174 -258 -174q-82 0 -143.5 49t-61.5 106q0 1 6 43q-55 44 -86.5 123t-31.5 172zM86 369q0 -138 78 -226 q27 57 47 60q4 0 8 -5t4 -10q0 -2 -5.5 -10.5t-14.5 -24t-15 -32.5q49 -49 154 -49q15 0 29.5 1.5t23.5 3t11 1.5h-3h3q13 0 16 -8q0 -27 -105 -27q-82 0 -135 35q0 -47 42 -79t102 -32q115 0 176 113q25 46 47.5 96t44.5 111.5t33.5 95.5t34.5 108t28 89q-59 0 -88.5 7.5 t-36 18t-6.5 33.5v43q0 17 2 25q36 -25 121 -25q10 0 20 0.5t16 1.5h5q3 7 7 20.5t7 20.5q-153 29 -233 29q-83 0 -156.5 -22t-133 -67t-94 -121t-34.5 -175z" />
<glyph unicode="G" horiz-adv-x="1173" d="M29 647q0 32 71 60q0 2 38 12t98.5 19.5t107.5 9.5q74 0 186 -25q174 160 363 160q40 0 111 -13l14 -4q13 -3 18.5 -5.5t20 -8t22.5 -11t21 -14.5t20.5 -20t15.5 -24.5t11.5 -31.5t3.5 -38q0 -50 -25 -87.5t-63.5 -56.5t-75.5 -28t-69 -9q-62 0 -120.5 13t-123 35 t-88.5 28q-98 -90 -158.5 -205.5t-60.5 -236.5q0 -205 165 -205q59 0 118.5 28t104.5 70t76 80t48 70q110 321 135 321q40 0 69 -27.5t29 -58.5q0 -8 -4 -20q-6 -11 -31 -56.5t-36 -68t-28 -61t-24.5 -69.5t-7.5 -60q0 -26 6.5 -38t28.5 -12q40 0 91 46t89 133v2h2q2 0 4 2 q6 0 12 -6q3 -3 3 -5q0 -4 -5.5 -25t-21.5 -57t-38.5 -69t-62.5 -57t-88 -25q-45 0 -77 35q-43 -95 -80 -164q120 -19 190 -19q163 0 287 72q15 6 70 45.5t69 57.5q4 0 15.5 -20.5t21.5 -50t10 -50.5q0 -39 -45 -70t-110.5 -47t-127.5 -24.5t-108 -8.5q-121 2 -309 51 q-28 -56 -78 -83t-98 -27q-9 0 -17 0.5t-29 5.5t-35.5 14t-27 28.5t-12.5 47.5q0 44 23 73t53 38q-30 -6 -62 -6q-57 0 -101.5 18.5t-71.5 47.5t-44.5 67.5t-24 75t-6.5 73.5q0 219 168 449q-136 0 -219 -21q-127 -44 -166 -76q-4 9 -9 22.5t-13.5 45t-7.5 49.5zM545 -207 q0 -51 69 -51q65 0 115 88q-67 27 -102 27q-32 0 -57 -15.5t-25 -48.5zM590 -96q4 2 20 2q23 0 46 -3t53.5 -9.5t44.5 -8.5q14 28 36 89.5t33 86.5q-16 -18 -53 -55q-81 -81 -180 -102zM672 674q4 -2 24 -10.5t26 -11l24 -10t25.5 -10t24 -8.5t26 -8.5t24 -6t25.5 -5t24 -3 t25 -1.5q33 5 69.5 28t36.5 46q0 11 -10 28q-52 46 -129 46q-102 0 -215 -74z" />
<glyph unicode="H" horiz-adv-x="1480" d="M43 285q0 121 38.5 216t123 153.5t205.5 58.5q53 0 107 -17.5t110.5 -52.5t99 -66.5t106 -83t99.5 -77.5q37 83 80 197.5t55 140.5q1 4 26 76.5t25 99.5q1 0 11.5 -3.5t19.5 -7t23 -10t24.5 -14t21 -17.5t16 -22.5t5.5 -26.5q0 -29 -20 -73q-23 -50 -83 -191.5 t-100 -224.5q93 -67 232 -96q47 215 133 438l12 37q12 46 12 61q0 11 -2 13q1 0 25 -9.5t47 -20t43.5 -30t20.5 -39.5t-11 -53q-2 -4 -59 -133q-76 -175 -113 -275q40 2 65.5 5t32.5 5.5t11.5 4.5t7.5 2q13 0 16 -6q0 -7 -15 -15t-48.5 -14.5t-79.5 -9.5q-47 -136 -47 -213 q-22 3 -37 12q-38 17 -45 47q0 13 4 41q2 34 19 119q-93 0 -242 92q-2 -2 -2 -4q-39 -74 -69.5 -123t-80 -109t-100.5 -95.5t-124.5 -60t-158.5 -24.5q-69 0 -132 14t-120 45.5t-98 77t-65.5 112.5t-24.5 149zM125 293q0 -146 96 -222.5t250 -76.5q50 0 95 12t80 30.5 t69 49.5t58.5 60t51.5 72t45 75.5t41 79.5q-21 14 -127 99t-189 132t-151 47q-151 0 -235 -99t-84 -259z" />
<glyph unicode="I" horiz-adv-x="860" d="M29 471q0 94 47.5 167t124.5 114t163 61.5t175 20.5q32 0 123 -4.5t172 -6.5q40 -1 82 -1t85 1q86 2 141 16t62 40q23 -44 23 -76q0 -36 -23 -68q-8 -13 -20 -22q-24 -14 -86 -27.5t-154 -13.5q-23 0 -33 2q2 -2 7.5 -6.5t7 -7t4 -8t3.5 -13.5t1 -21q0 -24 -10 -47 q-63 -117 -147.5 -321.5t-90.5 -269.5q54 -9 101 -26.5t67 -29.5q0 -11 -12.5 -42t-25.5 -57t-15 -26q-44 49 -148 84t-186.5 46.5t-132.5 11.5q-19 0 -19 -2q-2 0 -4 2q-4 4 -4 16t96.5 23.5t204.5 11.5q0 1 -2.5 4.5t-3 11t-0.5 31.5q0 19 14 80q32 123 107 312.5 t90 254.5q-29 4 -149 26.5t-191 22.5q-69 0 -135.5 -16t-124.5 -47.5t-93.5 -86.5t-35.5 -126q0 -79 48 -122.5t134 -43.5q19 0 36 2.5t27 5t11 2.5l2 -1q2 0 6 -3.5t4 -9.5q0 -4 -10 -9.5t-34 -11t-58 -8.5q-21 0 -45 4t-57 17.5t-58 35.5t-43 62t-18 92z" />
<glyph unicode="J" horiz-adv-x="1705" d="M25 313q0 28 4 33q12 31 117.5 61.5t209.5 30.5q146 0 336 -88q12 79 48 144t83.5 104.5t98 60.5t96.5 21q23 0 37 -2q119 207 471 207q74 0 177 -12.5t146 -12.5q67 0 125.5 7t95 17.5t63 21t41.5 17.5t19 7q7 1 13 -18t8 -38l2 -20q0 -36 -23 -68q-12 -16 -20 -22 q-24 -15 -88.5 -29t-157.5 -14q-67 0 -149 16q14 -8 14 -18q-31 -59 -82.5 -189t-112 -251.5t-141.5 -221.5q-65 -76 -156.5 -115.5t-193.5 -39.5q-166 0 -285 94.5t-131 253.5q-76 26 -109 36.5t-84.5 21.5t-93.5 11q-120 0 -249 -53l-43 -18q-51 -22 -62 -31q-2 5 -6 16.5 t-6 16.5q-12 36 -12 63zM750 330q0 -26 88 -49t131 -23q67 0 107.5 11.5t74.5 45.5q-58 14 -101.5 70.5t-43.5 132.5q0 59 30 127q0 2 -2 4q-77 -3 -143 -50t-103.5 -119t-37.5 -150zM762 221q30 -108 112 -169.5t213 -61.5q74 0 140.5 29t116.5 79.5t87.5 109.5t63.5 128 q35 85 71.5 181.5t58.5 155.5t32 79v2l6 6q-123 24 -209 24q-197 0 -309 -98l-25 -24q70 -23 106 -84t36 -148q0 -40 -25 -92q21 0 40 2t30 4t12 2q14 0 14 -12q0 -5 -11 -11t-38.5 -12t-64.5 -6q-38 -63 -112 -92t-157 -29q-87 0 -188 37zM1065 506q0 -65 27.5 -102 t85.5 -56q39 56 39 123q0 68 -38 112t-77 54q-37 -61 -37 -131z" />
<glyph unicode="K" horiz-adv-x="864" d="M14 578v8q0 11 32.5 12.5t94 12.5t113.5 44q65 35 106.5 80.5t54.5 80t13 65.5q1 -1 12.5 -5.5t23.5 -9.5t27 -14.5t26.5 -19.5t19.5 -25t8 -31q0 -22 -3.5 -32t-27.5 -56q-22 -39 -77.5 -175t-116.5 -290.5t-72 -181.5q-2 0 -8 -15t-12.5 -49t-6.5 -73q-8 0 -25.5 6 t-38 28t-20.5 54q0 55 65 256t134 368q-101 -49 -217 -49q-24 0 -48 2t-38 4t-15 2h-2q-2 0 -2 3zM338 180q0 121 151 246q82 72 203 162v2q68 53 120 106.5t78 92t42 69.5t22 46.5t9 15.5q98 -30 98 -121q0 -39 -35.5 -88t-91.5 -94.5t-103 -78.5t-90 -59q-7 -5 -45 -28 t-67 -41.5t-69.5 -49.5t-67.5 -58t-46.5 -61t-19.5 -65q0 -52 46 -106t114.5 -96t145 -76.5t141.5 -53t100 -18.5q44 0 83 9t63.5 21t42.5 25t26 20l8 7h2q1 0 3 1t3 1q13 0 13 -10q0 -3 -10.5 -14.5t-33.5 -29t-53 -34t-75.5 -28t-94.5 -11.5q-93 0 -207.5 42t-218 114 t-162.5 155q-24 40 -24 86z" />
<glyph unicode="L" horiz-adv-x="409" d="M-352 -172q0 52 56 94t130 63.5t129.5 32.5t71.5 11h4q4 0 4 2l-2 -2q48 51 99 137t88.5 166.5t82.5 197t67 180t56 162.5q1 -1 15 -6.5t29 -13.5t31.5 -19t27 -27.5t10.5 -35.5q0 -24 -10 -47q-4 -8 -40.5 -83.5t-50.5 -104t-50 -98t-59 -110t-54.5 -92t-59.5 -88.5 q-16 -22 -48 -59.5t-46 -58.5q148 -8 367 -56q57 -12 190 -47q189 -46 294.5 -69t274 -46.5t310.5 -23.5q317 0 516 90q98 45 143 90q8 -21 8 -49q0 -59 -41 -100q-17 -20 -41 -37q-64 -49 -157.5 -81.5t-190 -45t-150.5 -16t-98 -3.5q-121 0 -257.5 19t-244.5 46t-199 55 t-141 47t-50 20q-367 127 -549 127q-10 0 -22 -1t-15 -1q-6 -2 -13 -2l-2 10q-179 -172 -323 -172q-54 0 -72 12t-18 33zM-307 -166q20 -9 43 -9q39 1 88 25q78 38 139 93q-71 -6 -129 -21q-131 -32 -141 -88z" />
<glyph unicode="M" horiz-adv-x="1458" d="M29 240q0 105 35.5 200.5t93.5 162t131.5 107t148.5 44.5q74 0 118.5 -22t88.5 -66q0 -2 -12.5 -16t-35 -29t-42.5 -15q-11 0 -23 4q-2 1 -9.5 7.5t-12 10t-14.5 9t-19 8.5t-22.5 5.5t-28.5 2.5q-61 0 -129 -34.5t-115 -90.5q-58 -62 -79 -124.5t-21 -147.5 q0 -62 14 -115t43.5 -97t80.5 -69.5t120 -25.5q72 0 132 22.5t101.5 57t76.5 85t56 97.5t39 104q16 53 54.5 154t64 185.5t35.5 164.5q1 -1 22.5 -10.5t43 -22t37.5 -36t10 -48.5q-2 -9 -4 -17t-2 -9t-2 -6t-3.5 -8l-7.5 -15q-47 -102 -47 -278q0 -50 9 -108.5t17.5 -94.5 t23 -89t16.5 -59q25 73 74.5 156.5t144.5 218.5q89 139 146 252.5t72 160.5t15 66q1 -1 15.5 -6.5t29.5 -13.5t32 -19.5t27.5 -28.5t10.5 -36q0 -22 -10 -45q-63 -120 -179 -425.5t-116 -393.5q-8 0 -25 5t-38 26t-21 53q0 76 80 321q-103 -99 -166 -191t-80 -145 q0 -20 -10 -20t-37.5 52.5t-61 143.5t-53.5 179q-2 2 -2 10q-28 -75 -55 -132.5t-71 -123t-93 -108t-120 -71t-154 -28.5q-158 0 -248 92.5t-90 272.5z" />
<glyph unicode="N" horiz-adv-x="1245" d="M18 236q0 130 54 246.5t149 189.5t207 78q49 0 87.5 -16t72 -41t47.5 -31q0 -7 -3 -13.5t-9.5 -11.5t-13.5 -9.5t-17.5 -8t-18.5 -6.5t-19.5 -5.5t-17.5 -4t-16 -3.5t-12 -2q-26 51 -92 51q-61 0 -130.5 -34.5t-115.5 -90.5q-58 -70 -79 -129.5t-21 -142.5 q0 -62 14.5 -115t44.5 -97t81.5 -69.5t119.5 -25.5q74 0 136 24.5t103.5 60.5t77 91.5t55.5 103.5t41 111q88 264 113 350v2q7 31 12 49q13 57 15 78q2 0 32.5 -17t61.5 -39t31 -32q0 -8 -19 -65q2 0 2 -3q-96 -196 -96 -389q0 -169 84 -282q0 95 225 716l19 54l14 43 q14 46 16 67q3 -1 47 -20q2 -1 9.5 -5t10 -5.5t9 -5.5t9 -6l7.5 -6t7.5 -7.5t5.5 -7.5t4 -8q7 -12 7 -29q0 -21 -11 -49q-60 -101 -177.5 -417t-117.5 -402q-90 1 -152.5 94t-95.5 260q-39 -91 -80.5 -157t-96.5 -119t-126 -80t-158 -27q-156 0 -246 93t-90 272z" />
<glyph unicode="O" horiz-adv-x="905" d="M12 258v22q0 154 90 311q96 168 226 245q7 4 20.5 12t20.5 12q41 25 55 39q2 0 12 -21t19 -51t6 -47q0 -18 -39 -47q-114 -48 -213.5 -182.5t-110.5 -288.5q-2 -20 -1 -39q0 -110 54 -174q64 -74 166 -82q19 -1 37 -1q60 0 108 15q63 20 118 78l-25 13q-50 24 -85 66.5 t-50 94t-20 101.5q-3 28 -3 56q0 22 2 44q6 70 28.5 140.5t58.5 132.5q36 63 92 99q48 31 102 31q9 0 18 -1q51 -4 85.5 -36.5t49.5 -84t21 -100.5q4 -32 3 -65q0 -18 -1 -36q-11 -113 -61.5 -228t-110.5 -188q11 -1 21 -1q39 1 67 13q36 16 72 48q23 23 39.5 43.5 t24.5 32.5t13 21.5t8 13t7 3.5q12 0 12 -12q0 -7 -9 -30.5t-31.5 -58t-54 -65t-83.5 -50.5q-44 -16 -94 -16q-10 0 -21 1q-4 0 -24 4q-81 -73 -167 -103q-53 -19 -118 -19q-40 0 -84 7q-120 24 -182.5 111.5t-67.5 216.5zM485 375q-2 -17 -2 -33q-1 -68 27 -126 q34 -72 111 -105q44 67 82 162t45 176q3 36 3 67q1 21 -1 40q-4 45 -11.5 75.5t-19 48.5t-22.5 25.5t-21 7.5h-4q-57 0 -117 -111q-62 -115 -70 -227z" />
<glyph unicode="P" horiz-adv-x="903" d="M20 397q0 9 13 9q2 0 9 -9t21 -23.5t34.5 -31.5t54 -35.5t73.5 -32.5q35 108 109 281l14 43q17 53 17 68q1 -1 15.5 -6.5t29.5 -13.5t31.5 -19.5t27 -27.5t10.5 -34q0 -10 -1.5 -17t-5 -15.5t-13 -29.5t-22 -48.5t-36 -83.5t-51.5 -125q36 -4 53 -4q131 0 255.5 70 t191.5 200q53 101 53 154q0 26 -25 47t-63 33t-77 18t-72 6q-86 0 -207 -37q-76 -30 -138 -65t-97 -62.5t-58.5 -50.5t-34 -36t-12.5 -13q-64 51 -64 108q0 24 6 39q1 3 4.5 8.5t4.5 6.5q5 7 29.5 28.5t76.5 54t115 61.5t153 50t183 21q33 0 68.5 -2.5t93 -15t100 -33.5 t74.5 -62.5t32 -97.5t-24 -109q-78 -175 -226.5 -272.5t-304.5 -97.5q-43 0 -108 10q-36 -84 -68 -162q-5 -12 -12 -37q-12 -50 -12 -100q-8 0 -25.5 6t-38 28t-20.5 54t17.5 107t39.5 139q-5 1 -11.5 4t-8.5 4q-28 12 -52.5 27t-41 28.5t-30 27t-21.5 24t-13.5 19.5 t-7.5 13l-2 4q-2 0 -2 2q-3 3 -3 6z" />
<glyph unicode="Q" horiz-adv-x="954" d="M53 244q0 86 34.5 171t87.5 147t115 104.5t118 52.5q55 10 92 10q39 0 76 -7.5t61.5 -18.5t43 -22t29 -18.5t11.5 -7.5q1 -1 3 -2t3 -2q6 -6 6 -10q0 -8 -12 -8q-1 0 -11 6.5t-28 15.5t-41.5 17.5t-57 15t-69.5 6.5q-142 0 -248 -106q-66 -66 -109.5 -154t-43.5 -180 q0 -124 73.5 -201.5t200.5 -77.5q84 0 115 13q-102 102 -232 102q-9 0 -21.5 -1t-15.5 -1q-6 -2 -14 -2q-3 -3 -6 0q-4 4 -4 14q0 4 11.5 10.5t38.5 12.5t60 6q67 0 129 -28t136 -78q101 63 160 189t59 253q0 69 -21 122t-53 83.5t-73.5 50.5t-77 26.5t-70.5 6.5 q-100 0 -201 -45q-21 -21 -63 -21q-19 0 -45.5 21.5t-43 43t-16.5 25.5q34 9 84 37q58 25 88.5 37t78 22.5t93.5 10.5q191 0 313 -115.5t122 -294.5q0 -125 -67 -274.5t-177 -227.5q70 -32 143 -32q18 0 35 3.5t27 7t12 3.5q8 5 42 22t44 25q1 -5 4 -15.5t4 -15.5 q10 -30 10 -59q0 -24 -8 -37q-6 -18 -22 -31q-36 -28 -113 -28q-131 0 -277 108q-80 -30 -167 -30q-157 0 -256 93.5t-99 256.5z" />
<glyph unicode="R" horiz-adv-x="874" d="M2 391v4q0 11 12 11q3 0 18.5 -23t51.5 -51.5t86 -38.5q13 59 44 139t42 119l14 43q17 53 17 68q-63 -36 -108 -75.5t-61 -60t-18 -20.5q-63 50 -63 108q0 16 2 27.5t4 18.5t10 16t13 13t20.5 16t24.5 20h2q78 55 216 106.5t279 51.5q21 0 44 -1t61 -6t71.5 -13.5 t70 -24.5t62.5 -37t43 -54t17 -73q0 -51 -27 -111q-50 -119 -139 -205t-189 -127t-202 -41q-5 0 -16.5 1.5t-16.5 1.5q89 -111 243.5 -182.5t293.5 -71.5q45 0 66.5 1.5t50.5 10.5t55 29q16 -16 21 -37.5t-3 -44.5t-27 -42.5t-56 -33t-85 -15.5h-23q-41 0 -79 5 q-50 7 -90.5 17t-85 32t-76.5 40t-73 51.5t-67 56.5t-66 64.5t-61.5 65.5t-62.5 70q-7 -7 -15.5 -37t-8.5 -41l-3 -11q-3 -12 -7 -29t-7.5 -35t-6.5 -35.5t-3 -26.5q-5 0 -17 4t-28 12.5t-27.5 26t-11.5 41.5q0 26 4.5 51.5t15 67t13.5 55.5q-25 12 -47.5 26.5t-38 27.5 t-28 26t-20 23t-12.5 18t-8 12l-2 4q-2 0 -2 2zM279 258q23 -14 108 -14q127 0 236 68.5t176 199.5q53 101 53 156q0 49 -65.5 75.5t-141.5 26.5q-169 0 -356 -108q22 0 68 -32.5t46 -70.5v-7.5v-7v-5.5t-1 -5.5t-1.5 -5.5t-2.5 -7.5t-4 -8t-5.5 -11t-7 -13.5l-8.5 -17 q-52 -104 -94 -213z" />
<glyph unicode="S" horiz-adv-x="899" d="M12 242q0 54 22.5 111.5t65.5 99t93 41.5q66 0 153 -66q131 151 202 272t77 197q25 -9 65.5 -43.5t40.5 -71.5q0 -7 -10 -30.5t-10 -40.5q0 -41 26 -120t52 -171.5t26 -167.5q0 -113 -59 -199q58 -28 94 -28q42 0 66 7.5t28.5 17t10.5 17t16 7.5q8 0 8 -8q0 -7 -6 -13 l-4 -4q-8 -19 -45 -35t-82 -16q-78 0 -107 31q-57 -68 -141 -99.5t-178 -31.5q-174 0 -289 97.5t-115 246.5zM88 242q0 -19 2 -25q119 78 215 170q-65 45 -108 45q-5 0 -21 -4q-41 -23 -64.5 -74t-23.5 -112zM94 195q24 -97 106.5 -148t192.5 -51q171 0 252 92 q-49 37 -141 126t-152 138q-131 -105 -258 -157zM393 387q49 -45 139.5 -139t135.5 -131q28 54 28 110q0 64 -20 133t-47 137t-35 101q-106 -128 -201 -211z" />
<glyph unicode="T" horiz-adv-x="628" d="M-117 406q0 143 72 247t188.5 154.5t259.5 50.5q35 0 75.5 -3t67 -6.5t70 -9.5t60.5 -8q143 -20 231 -20q60 0 111.5 7.5t84 18.5t56 22t37 18.5t16.5 7.5q6 0 12 -19.5t9 -39t4 -19.5q0 -36 -23 -68q-12 -16 -20 -22q-18 -14 -79 -28.5t-144 -14.5q-104 0 -262 31 q0 -22 -11 -54q-7 0 -68 -156.5t-121 -342.5t-60 -248q-22 3 -37 12q-37 17 -45 49q10 83 34 213q59 285 150 512q1 1 1.5 2.5t1 4.5t1.5 5q7 30 8 31q-121 25 -207 25q-84 0 -158.5 -25.5t-132.5 -72t-92 -118.5t-34 -159q0 -131 75 -202.5t181 -71.5q17 0 32 2t23 4t10 2 q6 0 8 -2q5 -2 8 -9q-2 -7 -16 -14q-25 -14 -100 -14q-29 0 -62.5 8.5t-72.5 32t-70 58.5t-51.5 94.5t-20.5 134.5z" />
<glyph unicode="U" horiz-adv-x="1097" d="M12 471q0 10 33 11.5t94 13t111 45.5q39 18 73 46.5t53.5 55t30.5 44t13 24.5l4 9q3 8 7.5 21t9.5 27t8 28t2 23q1 -1 15 -6t28.5 -12.5t30.5 -18t26 -26.5t10 -35q0 -25 -8 -49q-4 -9 -34.5 -67t-42 -81t-36 -78.5t-35.5 -91t-22 -84.5t-12 -92q0 -61 66.5 -108 t142.5 -47q65 0 123.5 40t95.5 103q0 4 2 6q15 130 87 329.5t107 262.5q9 30 15 45q16 50 16 68q1 -1 15.5 -6.5t30 -13.5t32.5 -19.5t28 -28t11 -35.5q0 -26 -10 -49q-6 -14 -53.5 -112t-86.5 -182t-73.5 -182t-34.5 -147q0 -43 35 -43q40 0 90 46t88 133q2 0 4 2 q6 0 10.5 -2.5t6 -5t1.5 -3.5q0 -6 -5 -23.5t-20 -49.5t-36 -62q-1 -1 -9.5 -11.5t-11.5 -14t-12 -13.5t-15 -15t-16 -13t-19 -12t-20.5 -8.5t-24 -6.5t-26.5 -2q-31 0 -52.5 11.5t-43.5 45.5q-42 -55 -108 -86.5t-144 -31.5q-113 0 -205 76.5t-92 199.5q0 42 8.5 87 t17.5 73.5t24 70t20 56.5q-110 -49 -213 -49q-105 0 -105 20z" />
<glyph unicode="V" horiz-adv-x="911" d="M16 748q4 3 6 25.5t5 47t24 44.5t60 20q52 0 103.5 -22.5t117 -66t88.5 -55.5q32 57 92 85q34 16 64 16q23 0 44 -9q48 -21 48 -88q0 -51 -40 -85.5t-100 -34.5q-52 0 -106 20q-26 -11 -36 -103q-7 -60 -6 -126q0 -34 2 -70q6 -104 32 -190t67 -86q75 0 139 72t100.5 178 t56.5 218q16 91 16 167q-1 17 -1 33q-4 90 -30 118q10 0 16 2q4 0 18 1t21 1q56 0 74 -18q1 -4 7.5 -10t12 -16t10.5 -48t5 -100q0 -57 -18.5 -141.5t-56.5 -179t-87.5 -175.5t-119 -134.5t-144.5 -53.5q-71 0 -115.5 59t-56.5 147q-9 68 -9 140q1 21 1 43q4 95 21.5 173.5 t39.5 112.5q-59 21 -115.5 44t-77 30.5t-53 13t-80.5 5.5q-11 0 -39 -4zM455 725q68 -35 110 -35q22 0 33.5 16.5t11.5 41.5q0 59 -48 61h-2q-41 0 -78 -36q-23 -23 -27 -48z" />
<glyph unicode="W" horiz-adv-x="1161" d="M31 362q0 91 54 170t137.5 130t181 79.5t188.5 28.5q12 0 21.5 -9.5t4.5 -15.5q-3 -5 -45.5 -61t-80 -112t-73.5 -146.5t-42 -175.5q-3 -35 2 -63t13.5 -44.5t19.5 -27.5t18.5 -15t11.5 -4h4q63 0 121 84q-19 68 -19 136q0 36 6 74q16 106 55.5 190.5t95.5 138t108 53.5 q49 0 75.5 -40t26.5 -85q0 -125 -69 -260.5t-152 -208.5q4 -29 26.5 -75.5t43.5 -49.5q12 -3 25 -3q51 0 103 53q66 67 112.5 171t73.5 220q20 88 20 152q0 22 -2 40q-46 6 -70.5 32t-24.5 56q0 46 26 72.5t52 21.5q14 -3 25 -13.5t19 -31t10.5 -29t7.5 -30.5q81 39 134 61 t130.5 42.5t150.5 23.5q55 0 94.5 -28t39.5 -89q0 -16 -7 -47l-2 -2q-4 -4 -8 -4q-5 0 -17.5 6.5t-42 13.5t-75.5 7q-85 0 -209 -28t-176 -34q2 -23 2 -49q0 -33 -3 -73q-5 -72 -19.5 -158t-45.5 -169t-72.5 -151.5t-105.5 -111t-141 -42.5q-22 0 -43.5 9.5t-36.5 21t-32 33 t-25 33.5t-21.5 35t-15.5 26q-86 -86 -154 -86q-50 0 -85 33.5t-49.5 77t-14.5 90.5q0 89 44 197t94 183t101 132q-46 -11 -105 -40.5t-121 -74.5t-104 -111.5t-42 -138.5q0 -18 2 -22q5 -18 44 8q34 24 46 49q5 9 17.5 14t19.5 -1t0 -25q-1 -1 -11 -28t-19 -42t-25.5 -37.5 t-39.5 -33.5t-51 -11q-52 0 -81 44t-29 95zM678 315q0 -7 2 -30q57 101 104 217q28 69 28 101q0 22 -13 26q-27 -5 -56 -61.5t-47 -128.5t-18 -124zM1059 786q0 -13 10 -20.5t23 -9.5q1 2 1.5 17.5t-4.5 32t-14 13.5q-8 -4 -11.5 -8.5t-4 -9t-0.5 -15.5z" />
<glyph unicode="X" horiz-adv-x="1521" d="M41 195q0 91 29 168.5t74 128t100 86.5t105.5 51.5t92.5 15.5q27 0 53.5 -3t46 -6.5t35 -7.5t25 -7t10.5 -3l4 -4q7 -7 7 -10q0 -8 -13 -8q-1 0 -22.5 4t-57.5 8t-71 4q-30 0 -66.5 -9.5t-77 -28t-78 -51t-68 -73.5t-49 -100t-18.5 -127q0 -155 90.5 -245.5t272.5 -90.5 q268 0 534 332q-35 144 -47 342q-64 -76 -133 -113.5t-119 -37.5q-44 0 -47 10q0 4 2 6q0 4 1 6q1 1 1 2q0 2 2 2q0 -2 3 -2h4q29 0 82 28.5t96 88.5q66 78 96 205q0 60 -20 116q8 0 14 2q3 0 15 1.5t20 1.5q15 0 24.5 -0.5t26 -4.5t26 -11.5t17.5 -22.5t8 -37h2 q4 -54 4 -161q-1 -32 -1 -70v-48q0 -125 7 -194q2 5 13 20q52 76 100.5 158t74.5 131t55 107.5t32 64.5q0 8 17.5 48t17.5 48q5 0 28.5 -12.5t48.5 -36t25 -47.5q0 -35 -6 -41q-178 -360 -389 -606q24 -128 102 -166q52 0 98.5 27.5t71 57.5t56.5 77t42 59q12 19 22.5 36 t18 29t13.5 23t9.5 17.5t7 12t5 9t3 5.5t3 2.5t2.5 0.5l4 -1q4 -1 7 -1q6 -3 6 -10q-1 -8 -13.5 -38.5t-39.5 -82.5t-58 -100q-19 -31 -26.5 -43t-35 -47.5t-50 -53.5t-59.5 -34.5t-75 -16.5q-36 0 -64.5 11.5t-48.5 35t-31 40t-23.5 45t-14.5 32.5q-113 -130 -259.5 -208.5 t-309.5 -78.5q-110 0 -204 44t-156 135.5t-62 214.5z" />
<glyph unicode="Y" horiz-adv-x="894" d="M27 227q0 26 5.5 59t18 76t22 74t30 84t28 73.5t30 75t23.5 56.5l15 43q16 50 16 68q13 -4 27.5 -11t38.5 -21t39.5 -36t15.5 -47v-2q-7 -14 -27 -52l-30 -57q-4 -7 -27.5 -51.5t-32 -62t-29 -59.5t-30 -67t-21.5 -60t-17 -64.5t-5 -55.5q0 -85 66 -138.5t157 -53.5 q38 0 70.5 9t56 23t45 35.5t35 42t27 48t21 47t17.5 46t15 38.5q11 42 29.5 101.5t27.5 98.5t12 84q16 0 62.5 -31.5t46.5 -66.5q0 -22 -10 -51q0 -1 -10 -23.5t-24.5 -57.5t-28.5 -74.5t-24 -82.5t-10 -75q0 -27 7 -39.5t28 -12.5q40 0 91 46t89 133h2q3 0 5 2q14 0 14 -9 v4q-1 0 -3.5 -13t-9 -34t-16.5 -46.5t-26.5 -50.5t-37.5 -46t-53 -34t-69 -13q-46 0 -78 35q-44 -95 -80 -164q132 -21 187 -21q119 0 217 38t120 67h5q11 0 51.5 -44.5t40.5 -51.5l-2 -2v-3q-120 -98 -342 -98q-134 0 -314 49q-76 -110 -174 -110q-15 0 -28 1.5t-41 9.5 t-45 30t-17 57q0 32 12 55t33.5 35t33.5 16.5t30 8.5q11 1 21 1.5t22 -1t19 -2.5t21 -4.5t18.5 -4.5t21.5 -6t20 -6q39 96 51 135q-76 -79 -203 -79q-134 0 -215 76q-77 72 -77 201v13zM262 -209q0 -25 20.5 -38t49.5 -13q64 0 114 88q-70 25 -104 25q-31 0 -55.5 -15 t-24.5 -47z" />
<glyph unicode="Z" horiz-adv-x="966" d="M41 -16q0 36 37 51q13 5 41.5 2.5t46.5 -5.5t48 -8.5t46 -7.5q69 72 157 185t150 195.5t149.5 167.5t174.5 130l-47.5 19t-49.5 19.5t-45.5 17t-49 17t-45.5 14t-49.5 13t-46 8.5t-51 7t-48.5 2q-72 0 -134.5 -25.5t-100 -62t-65.5 -73t-39 -62.5l-11 -25v2q0 -1 -3 -4 q-2 -2 -6 -2q-6 0 -10 3.5t-4 6.5q0 9 10.5 35.5t41.5 75.5t73 94q109 109 315 109q52 0 101 -9q131 -26 271 -63t222 -56.5t140 -19.5q54 0 98.5 7.5t67.5 14.5t26 7q12 0 12 -59q0 -48 -28 -80q-9 -11 -29 -23q-40 -20 -104 -20q-86 0 -216 36q-73 -2 -147.5 -39.5 t-151.5 -110.5t-136 -139.5t-145 -170.5t-136 -158q174 -27 254 -27q253 2 379 172l4 5q4 4 10 4q10 0 10 -11q0 -9 -16.5 -32.5t-52 -55t-83 -59.5t-119.5 -48t-151 -20q-151 0 -284 19q-28 -28 -45.5 -43.5t-51 -33t-63.5 -17.5q-39 0 -80 42t-41 89zM125 -31 q7 -16 17 -26.5t16 -10.5q16 0 47 31q-16 0 -42.5 3t-37.5 3z" />
<glyph unicode="`" horiz-adv-x="477" d="M55 737q0 10 21 39q20 20 22 21q10 -18 39 -54l6.5 -6.5l8.5 -8.5t10.5 -9.5t14 -11t16 -10t20 -9t23 -7.5t27 -5.5t30.5 -1.5q34 0 98 16h2v-2q0 -4 2 -4l4 -7v-1q0 -5 -23 -15.5t-64.5 -20t-80.5 -9.5q-33 0 -71.5 10t-71.5 35.5t-33 60.5z" />
<glyph unicode="a" horiz-adv-x="540" d="M-29 199q0 79 38 159t108.5 135.5t152.5 55.5q14 0 27.5 -2t22.5 -4.5t20.5 -7.5t16.5 -8t17 -10t15 -9l8 24q12 0 56.5 -36t44.5 -66q0 -15 -21 -63h-2q-71 -129 -91 -188q-19 -57 -19 -103q0 -68 28 -68q33 0 77.5 60t78.5 168q0 2 12 2q10 -7 10 -9q0 -11 -13.5 -51.5 t-36.5 -91.5t-61.5 -90t-80.5 -39q-35 0 -65.5 28.5t-43.5 86.5q-1 -1 -7.5 -8.5t-8.5 -10t-9 -10t-11 -10.5t-12.5 -9t-15 -9t-16.5 -7.5t-19.5 -6.5t-22 -3.5t-25.5 -1.5q-44 0 -76 22t-47.5 56.5t-22 65.5t-6.5 59zM43 176q0 -133 102 -133q66 0 121 68q0 112 68 270 q-44 47 -84 47q-69 0 -138 -81.5t-69 -170.5z" />
<glyph unicode="b" horiz-adv-x="452" d="M-41 119q0 85 44 232t80.5 237t66.5 155l14 43q16 50 16 68q1 -1 15.5 -6.5t29.5 -13.5t32 -19t27.5 -27t10.5 -34q0 -8 -1.5 -17t-6 -22t-8.5 -23t-13.5 -30.5t-16.5 -34.5t-21.5 -44t-24.5 -51q24 9 59 9q43 0 74.5 -16t48 -42t24 -52.5t7.5 -53.5q0 -129 -90 -242 q50 15 87 37.5t49 37.5l11 15q2 -2 8 -4q4 -4 4 -8q0 -3 -9.5 -16.5t-30 -34t-46.5 -40.5t-65 -35.5t-80 -18.5q-8 -4 -42.5 -28.5t-65 -35t-74.5 -10.5q-55 0 -84 27.5t-29 97.5zM47 74q3 -23 35 -23q34 0 82 25q-34 0 -62.5 29.5t-42.5 62.5q-12 -49 -12 -94zM135 231 q0 -95 96 -106q39 33 69 91.5t30 115.5q0 43 -7 67t-15.5 29.5t-20.5 5.5q-46 0 -82 -36t-53 -81.5t-17 -85.5z" />
<glyph unicode="c" d="M-27 190q0 134 61 234t183 141q18 6 37 6q42 0 71.5 -22.5t42 -55.5t17 -55t4.5 -35q0 -34 -8 -68t-30 -62.5t-54 -28.5q-28 0 -64 12q-5 2 -16 6t-16 6q39 49 51 103q6 21 6 41q0 32 -25 32q-29 0 -70.5 -37t-74.5 -98.5t-33 -120.5q0 -63 36.5 -104t92.5 -41 q86 0 187 90q34 27 54 50.5t23.5 35.5t8.5 18.5t16 6.5q6 -3 6 -8q-20 -90 -125.5 -171t-197.5 -81q-58 0 -101 33t-62.5 78.5t-19.5 94.5z" />
<glyph unicode="d" horiz-adv-x="552" d="M-25 199q0 50 21.5 109.5t58.5 113.5t94.5 89.5t122.5 35.5q60 0 101 -23q18 46 36.5 90.5t34 81.5t19.5 47l14 43q17 53 17 68q1 -1 15.5 -6.5t29.5 -13.5t31.5 -19.5t27 -26.5t10.5 -32q0 -22 -10 -51l-72 -149q-73 -150 -120.5 -272.5t-47.5 -183.5q0 -43 35 -43 q40 0 90 46t88 133q2 0 4 2q8 0 15 -7l4 -4q0 -7 -5 -24.5t-20.5 -49t-36.5 -61.5q-67 -96 -153 -96q-29 0 -58 15.5t-38 49.5q-69 -69 -148 -69q-43 0 -75.5 20.5t-50 53.5t-26 66.5t-8.5 66.5zM45 156q0 -56 34 -85.5t83 -29.5q73 0 112 57q-2 6 -2 29q0 103 58 272 q-35 27 -76 27q-79 0 -144 -88.5t-65 -181.5z" />
<glyph unicode="e" horiz-adv-x="436" d="M-25 199q0 90 39 174.5t103 136t133 51.5q62 0 99.5 -35.5t37.5 -81.5q0 -87 -69 -151t-164 -64q-63 0 -88 25q-13 -41 -13 -74q0 -60 36.5 -104.5t94.5 -44.5q70 0 164 67q23 17 40 32.5t25 25t13.5 17t8 10.5t5.5 3q7 0 9 -2q4 -4 4 -8q-26 -50 -72 -100 q-95 -99 -215 -99q-51 0 -90 22.5t-60 57.5t-31 71.5t-10 70.5zM74 285q4 -2 26 -2q57 0 107.5 47.5t50.5 85.5q0 26 -29 26q-51 0 -104 -67q-35 -53 -51 -90z" />
<glyph unicode="f" horiz-adv-x="299" d="M-90 -180q0 51 10.5 114t31.5 137.5t36.5 123.5t43.5 129t34 98q-21 36 -42 69.5t-28.5 46t-7.5 15.5q0 10 12 10q18 -3 55.5 -7t55.5 -7q12 30 37 96.5t38 97.5l15 43q16 50 16 68q1 -1 15.5 -6.5t29.5 -13.5t32 -19.5t27.5 -26.5t10.5 -32q0 -22 -14 -56.5t-38.5 -85.5 t-35.5 -79q116 -10 116 -17t-98 -9q-20 -1 -31 -1q-22 -48 -71 -172q4 -9 25 -49.5t30.5 -62.5t24.5 -61.5t21.5 -79t6.5 -81.5q0 -60 -18.5 -113t-46.5 -88t-61 -61t-61 -38.5t-48 -14.5q-6 -2 -21 -2q-28 0 -48 10t-30.5 23t-16 34t-6.5 35t-1 33zM10 -188q0 -45 27 -45 q41 0 75 29.5t53.5 72.5t30.5 86t11 76q0 104 -68 252q-97 -249 -125 -418q-4 -32 -4 -53zM51 502q0 -2 4 -6q21 -27 25 -33q3 7 7 21.5t7 21.5h-21q-22 1 -22 -4z" />
<glyph unicode="g" horiz-adv-x="489" d="M-82 -150q0 81 80 111q47 7 221 19q1 7 4 17t4 17q-1 0 -17.5 -7t-22.5 -9t-21 -5t-29 -3q-145 0 -162 200q0 78 34.5 157.5t103.5 138t153 63.5q61 0 121 -27q1 2 8 12.5t9 14.5l6 12t5.5 15t2.5 14q24 -14 41 -25q41 -25 49 -55q2 -2 2 -14q0 -19 -8 -35 q-156 -328 -207 -481q50 -3 82 -7t69.5 -15t56.5 -33.5t19 -55.5q0 -55 -46.5 -101.5t-106.5 -46.5q-55 0 -101.5 41.5t-56.5 106.5q-95 -10 -191 -28.5t-96 -35.5q-6 24 -6 45zM49 178q0 -139 105 -139q23 0 54.5 11t31.5 22q31 125 102 325q-37 29 -82 29 q-73 0 -142 -78.5t-69 -169.5zM238 -127q4 -2 14 -2q4 -1 10.5 -2t9.5 -2q11 -43 41.5 -73t67.5 -30q32 0 63 25t31 68q0 37 -61 37q-24 0 -79.5 -9t-96.5 -12z" />
<glyph unicode="h" horiz-adv-x="471" d="M-63 0q0 42 11 102t31 129t41 136t47 138.5t44 118.5t37 96t20 52q11 37 14 45q17 53 17 68q1 -1 20 -9.5t39.5 -19t37.5 -30t17 -40.5q0 -23 -10 -53q-278 -570 -278 -715q0 2 2 2q62 113 121 207.5t93 143t60 85t34 53t3 26.5q4 0 26.5 -15.5t45 -41t22.5 -46.5 q0 -11 -6 -29q-11 -31 -43 -84.5t-53 -103t-21 -96.5q0 -62 31 -62q32 0 74.5 45.5t81.5 133.5q0 2 12 2q10 -7 10 -9q0 -6 -9 -30.5t-26.5 -58.5t-40 -66.5t-54.5 -55t-64 -22.5q-47 0 -80 48t-33 114q0 60 20 127q-139 -256 -157 -326q-7 -24 -26.5 -38.5t-43.5 -14.5 q-28 0 -47.5 22t-19.5 72z" />
<glyph unicode="i" horiz-adv-x="251" d="M-37 145q0 72 28.5 160.5t61 159t35.5 86.5q-1 -2 3.5 -5t13 -7t19.5 -10t21.5 -14.5t20 -18.5t15 -24.5t5.5 -31.5q0 -25 -22 -53q-3 -6 -17.5 -33t-19.5 -36t-17.5 -34t-17 -37t-13.5 -34t-12.5 -36.5t-6.5 -33t-3 -34.5q0 -27 7 -39.5t28 -12.5q40 0 90 46t88 133 q2 0 4 2q8 0 15 -7l4 -4q0 -11 -19 -60q-55 -146 -162 -168q-16 -3 -34 -3q-56 0 -85.5 43.5t-29.5 105.5zM137 629q0 32 19.5 52.5t48.5 20.5t47 -18t18 -45q0 -15 -6 -27q-11 -23 -31 -37t-43 -14q-27 0 -40 19.5t-13 48.5z" />
<glyph unicode="j" horiz-adv-x="260" d="M-379 -137q0 37 19.5 64t48 39t51 17t39.5 5q74 0 100 -4v2q21 49 42 102.5t45 117t34 89.5q20 50 51.5 132t48.5 124q-1 -2 6 -6t18 -9.5t24 -14t24.5 -19t19 -26t7.5 -32.5q0 -8 -4 -24q-6 -12 -30.5 -56t-35.5 -66.5t-28 -59.5t-24 -68t-7 -59t6.5 -41t27.5 -13 q40 0 90.5 46t88.5 133q2 0 4 2q5 0 12 -7l4 -4l-3 -13q-4 -12 -11 -32.5t-17 -45t-27.5 -49.5t-38.5 -45.5t-51 -33t-65 -12.5q-51 0 -82 39q-19 -44 -28 -60q18 -2 38.5 -4.5t33.5 -4t28 -3t23.5 -3t17.5 -4t14 -5.5t9.5 -7t6 -9.5t1.5 -12.5q0 -27 -2 -52t-5 -39.5 t-6 -14.5q-34 9 -110.5 33.5t-100.5 31.5q-48 -68 -89 -96.5t-95 -28.5q-46 0 -84.5 26t-38.5 81zM-338 -150q0 -47 64 -47q66 0 116 88q5 0 15.5 1t19.5 0.5t19 -3.5l-50 15h2q-59 18 -96 18t-63.5 -19t-26.5 -53zM147 627q0 16 9 37q14 38 61 38q28 0 46 -19t18 -46 q0 -29 -25 -52.5t-55 -23.5q-25 0 -39.5 19.5t-14.5 46.5z" />
<glyph unicode="k" horiz-adv-x="444" d="M-1761 -88q0 28 8 49q45 -45 143 -90q199 -90 520 -90q108 0 234 12q82 7 231 29q327 54 482 98q5 1 77.5 20.5t175.5 42.5t195 35q-77 72 -131 166q-21 -34 -39.5 -69.5t-27 -54t-20 -35t-24 -23t-32.5 -6.5q-13 0 -22 2.5t-21.5 11t-19.5 30t-7 54.5q0 114 70 324 t121 319q5 5 19.5 50.5t14.5 70.5q17 0 66 -32.5t49 -67.5q0 -14 -63 -142t-126 -282t-63 -232q145 264 354 433q3 -3 11 -7q12 -9 12 -12q-2 0 -30.5 -30.5t-69 -81t-64.5 -91.5q12 -111 164 -293h14q63 -6 125 -18q129 -25 203 -80q57 -45 57 -115q0 -47 -77 -47 q-149 0 -336 168q-12 9 -25 9q-15 0 -35 -3.5t-64 -14t-86.5 -22t-138.5 -36t-184 -47.5q0 -4 -67.5 -24t-179 -47.5t-237 -54t-259.5 -45t-228 -18.5q-56 0 -118.5 5t-148 19t-170.5 46t-148 78q-24 15 -43 37q-41 45 -41 102zM512 -66q35 -43 125 -96q38 -20 70 -31 q16 -8 36 -8q22 0 33 11q8 8 10 12q-13 60 -143 92q-53 14 -131 20z" />
<glyph unicode="l" horiz-adv-x="180" d="M-59 -4q0 115 86.5 382.5t171.5 469.5q11 37 14 45q16 50 16 68q17 0 67 -33t50 -68q0 -23 -22 -74q-295 -635 -295 -774q0 -16 6 -16q9 0 27.5 14t55.5 57.5t77 108.5q17 17 22 17q4 -4 4 -11q0 -25 -40 -90.5t-91.5 -122.5t-79.5 -57q-12 0 -20 1.5t-21 8.5t-20.5 26 t-7.5 48z" />
<glyph unicode="m" horiz-adv-x="702" d="M-43 125q0 58 14.5 124.5t35 121.5t42 101.5t37 72.5t18.5 26q28 0 78 -26q22 -10 47 -25q-2 -4 -59.5 -104t-88 -176.5t-30.5 -137.5q186 340 252 406q22 38 23 41q16 30 26 61q5 0 27 -15t44.5 -40.5t22.5 -46.5q0 -25 -24 -74t-53 -97.5t-54.5 -115t-27.5 -121.5 q76 138 141 236t95.5 133t52 68.5t30.5 72.5q3 0 24.5 -15t44.5 -39.5t23 -43.5q0 -31 -38 -103.5t-76.5 -156t-38.5 -141.5q0 -27 5 -40.5t21 -13.5q32 0 74.5 45.5t81.5 133.5q2 0 4 2q7 0 14 -7l5 -4q0 -7 -14 -41t-37.5 -78t-62.5 -78t-81 -34t-74 40t-32 109 q0 87 53 232q-44 -79 -104.5 -200t-63.5 -136q-15 -47 -60 -47q-47 0 -65.5 34.5t-18.5 100.5q0 78 31 180q-18 -39 -44 -97.5t-40.5 -89.5t-32.5 -64.5t-33.5 -47.5t-31.5 -14q-45 0 -63.5 31.5t-18.5 97.5z" />
<glyph unicode="n" horiz-adv-x="499" d="M-49 80q0 43 8 90t19.5 85t26.5 76.5t26.5 63t22.5 46.5l12 24q15 31 40 106q17 0 56 -37.5t39 -66.5q0 -30 -24.5 -77.5t-54.5 -92.5t-54.5 -106.5t-24.5 -116.5q0 -19 2 -25q91 174 163.5 288t103 147.5t50 61.5t27.5 64q5 0 27 -15t44.5 -40.5t22.5 -46.5 q0 -33 -14 -47q-12 -25 -51.5 -91.5t-62.5 -121.5t-23 -105q0 -27 5.5 -40t22.5 -13q30 0 74 45.5t82 132.5q2 0 4 2q6 0 12 -6l5 -4q0 -4 -8 -27t-25 -57.5t-39 -67.5t-54.5 -56t-66.5 -23q-47 0 -78 41q-28 42 -28 108q0 50 10.5 91t34.5 108q-9 -16 -35 -64t-45 -83.5 t-41.5 -79.5t-36.5 -76.5t-19 -50.5q0 -3 -8.5 -21.5t-27 -38.5t-37.5 -20q-46 0 -64 35t-18 102z" />
<glyph unicode="o" horiz-adv-x="442" d="M-25 186q0 73 26 141t61.5 111t66 68.5t45.5 30.5q11 0 35 -37q46 32 90 32q57 0 88 -45.5t31 -85.5q2 -14 2 -39q0 -124 -96 -247q12 -4 24 -4q29 0 66 23.5t41 23.5q6 0 6 -11q0 -27 -35 -59.5t-104 -32.5q-19 0 -52 11q-17 -22 -55 -46t-82 -24q-77 0 -117.5 59.5 t-40.5 130.5zM53 158q0 -102 86 -111q32 0 80 43q-88 53 -88 203q0 19 4 51q-82 -85 -82 -186zM223 242q0 -32 9.5 -63t31.5 -38q35 47 49 117q9 24 9 55q0 82 -17 88q-29 0 -55.5 -54.5t-26.5 -104.5z" />
<glyph unicode="p" horiz-adv-x="468" d="M-182 -293q9 66 139.5 465t130.5 410q15 0 58 -31t51 -64q7 5 22.5 13.5t44.5 18t55 9.5q113 0 113 -125q0 -108 -65 -241q133 -27 133 -41q0 -12 -11 -12q-6 0 -26 3.5t-52 8.5t-63 8q-31 -62 -91 -102.5t-122 -40.5q-50 0 -75 22.5t-25 54.5q0 37 21 62t56 35.5 t61.5 14t55.5 3.5q27 0 41 -2q21 40 41.5 109.5t20.5 99.5q0 23 -10 23q-32 -3 -59 -9.5t-47.5 -17t-35 -19t-27.5 -23t-18.5 -21t-15 -21.5t-10.5 -16q-68 -138 -137 -285.5t-103 -223t-35 -75.5q-13 2 -16 10zM100 72q0 -17 21 -17q27 0 67.5 24.5t57.5 53.5 q-52 0 -99 -18.5t-47 -42.5z" />
<glyph unicode="q" horiz-adv-x="516" d="M-27 201q0 46 20 104t55 112.5t92 92t122 37.5q61 0 121 -31q38 60 45 94q12 0 55 -39t43 -71q0 -4 -3.5 -12t-10 -21l-10.5 -21q-69 -142 -119 -274q37 -75 55.5 -138t18.5 -136q0 -15 -4 -43q14 -2 32 -3q16 -2 18.5 -2.5t2.5 -4.5v-1q0 -2 -2 -3.5t-7.5 -2t-10.5 -1 t-16 -1t-19 -0.5q-13 -84 -53.5 -116.5t-104.5 -32.5q-63 0 -88 34.5t-31 112.5q-8 0 -18.5 -1t-12.5 -1q-10 0 -12 7.5t-2 41.5q0 10 2 10q21 -3 45 -6q12 80 27 127q-37 -16 -80 -16t-74.5 22t-47 56.5t-22 66t-6.5 60.5zM47 176q0 -26 3.5 -46t12.5 -41t30.5 -32.5 t53.5 -11.5q33 0 64 14l8 4q19 61 62.5 180t52.5 144q-39 39 -84 39q-70 0 -136.5 -81t-66.5 -169zM270 -213q0 -23 9 -34t36 -11q67 0 84 94q-39 -2 -125 -2q-4 -32 -4 -47zM281 -127q20 -3 61 -7t61 -7q3 21 3 49q0 112 -41 215q-42 -100 -57 -144.5t-27 -105.5z" />
<glyph unicode="r" horiz-adv-x="434" d="M-14 158v6q0 2 2 2q53 126 75 237q-59 39 -59 109q0 26 4.5 35.5t20.5 9.5q21 0 30 -4q86 -18 86 -23q-8 -18 -14 -24q0 -6 30 -10t62 -4h58q14 20 24 43q21 38 31 75q4 0 26 -14.5t45 -39.5t23 -46q0 -33 -39 -104.5t-78 -153.5t-39 -141q0 -54 27 -54q32 0 74.5 45.5 t81.5 133.5q2 0 4 2q6 0 8 -2q10 -7 10 -9q0 -4 -8.5 -27.5t-25.5 -58t-39 -67t-54.5 -55.5t-66.5 -23q-42 0 -74.5 40t-32.5 109q0 104 58 242q-41 -8 -86 -8q-25 0 -35 2q-49 -101 -87 -192q-12 -28 -16 -35t-10 -7q-16 0 -16 11z" />
<glyph unicode="s" horiz-adv-x="401" d="M-47 143q0 32 15.5 55t43.5 27q29 47 90.5 160t77.5 141q0 21 13 52.5t26 31.5h-2q0 -1 20.5 -12.5t44.5 -32t31 -43.5q2 -4 2 -16q0 -3 -4 -19q1 -32 24 -129t30 -161q0 -98 -70 -154.5t-160 -56.5q-85 0 -133.5 50t-48.5 107zM2 152q0 -27 36 -59t83 -32q51 0 94 33.5 t43 85.5q0 37 -34 137t-38 119q-74 -107 -143 -203q9 2 17.5 4t16 3t14.5 2t12.5 1.5t10.5 1t8.5 0.5h6t3.5 1h1q2 0 4 -2q4 -4 4 -13q0 -5 -34.5 -12t-69.5 -23t-35 -44z" />
<glyph unicode="t" horiz-adv-x="237" d="M-115 616q0 45 62 80q17 0 26 -5t9 -11t-7 -6q-3 0 -8 3t-10 3q-13 0 -24 -9.5t-11 -31.5q0 -41 55 -41q14 0 31.5 3t32 6.5t43.5 11t49 12.5q15 33 35 84t33 87t12 36q24 0 68.5 -35t44.5 -72q0 -22 -23 -63q138 22 258 22q115 0 184 -18q25 -11 37 -23q39 -35 39 -82 q0 -11 -4 -34t-10 -23q-3 0 -21.5 8.5t-65 19.5t-116.5 15q-63 8 -176 8q-68 0 -188 -10q-191 -377 -191 -483q0 -39 33 -39q41 0 93 43.5t91 128.5q2 0 4 2q7 0 13 -6l4 -4q-2 -9 -6 -24t-21.5 -54t-39.5 -68.5t-62 -54t-88 -25.5q-40 0 -74.5 28.5t-34.5 94.5 q0 143 129 447q-35 -13 -74 -13q-58 0 -94.5 27.5t-36.5 64.5z" />
<glyph unicode="u" horiz-adv-x="505" d="M-27 147q0 129 111 363h-2q18 31 22 41q14 23 29 63q5 0 27 -15t44.5 -41t22.5 -48q0 -23 -39.5 -95.5t-79.5 -159.5t-40 -146q0 -29 7.5 -43.5t30.5 -14.5q33 0 72 37t72 113q17 90 80 227q3 7 9 20.5t9 20.5q10 23 25 63q12 0 56 -36.5t44 -67.5q0 -24 -33 -86 t-66.5 -136.5t-33.5 -129.5q0 -68 29 -68q32 0 76.5 60t78.5 168q0 2 13 2q10 -7 10 -9q0 -11 -13.5 -51.5t-37 -91.5t-62 -90t-80.5 -39q-43 0 -77.5 45.5t-34.5 114.5q-73 -121 -162 -121q-42 0 -74.5 41t-32.5 110z" />
<glyph unicode="v" horiz-adv-x="458" d="M-25 178q0 100 31 188.5t64 139.5q36 65 49 104q4 0 25.5 -15t43 -39.5t21.5 -43.5q0 -29 -21 -72t-45.5 -82.5t-45.5 -94t-21 -103.5q0 -84 61 -84q24 0 47.5 12t39.5 25.5t36.5 42t28.5 41t26 43.5q-49 49 -49 131q0 19 4.5 44t15 57.5t34.5 56t57 26.5q49 0 49 -80 q0 -54 -20 -128t-37 -114q31 -22 77 -22q6 0 12 0.5t9 1t4 0.5q0 -2 2 -2q0 -1 1 -2t1 -2q0 -2 -3 -4.5t-13.5 -5t-26.5 -2.5q-37 0 -72 14q-17 -46 -45 -91.5t-75.5 -84.5t-96.5 -39q-86 0 -127 51.5t-41 132.5zM307 348q0 -31 23 -82q53 127 53 187q0 30 -18 30 q-22 0 -40 -50.5t-18 -84.5z" />
<glyph unicode="w" horiz-adv-x="720" d="M-27 145q0 78 21.5 153.5t47.5 123t53 100.5t34 86q4 0 27 -15t46 -39.5t23 -43.5q0 -33 -38.5 -104.5t-77.5 -153.5t-39 -141q0 -62 39 -62q33 0 71.5 38t71.5 118q3 57 16 112t30 93t33.5 68t28.5 44l11 15q15 0 43 -14.5t49 -29.5t20 -16v-2q-76 -121 -101 -184 q-28 -72 -28 -133q0 -82 62 -82q29 0 56.5 16t51 45.5t37.5 50.5t31 52q-47 41 -47 129q0 50 33 121t77 71q50 0 50 -78t-62 -252q28 -22 82 -22q19 0 23 2h2v-2q0 -2 2 -4q0 -1 -1 -2t-1 -2v-2q-3 -6 -33 -6q-45 0 -80 16q-13 -34 -31 -67.5t-45 -68.5t-64 -57t-77 -22 q-140 0 -164 147q-79 -145 -174 -145q-42 0 -75.5 40t-33.5 109zM584 348q0 -40 16 -72q1 -3 3 -5t3 -5q14 27 32.5 91t18.5 96q0 30 -16 30q-22 0 -39.5 -50.5t-17.5 -84.5z" />
<glyph unicode="x" horiz-adv-x="557" d="M-150 -135q0 12 297 385q-17 60 -34 145q-33 -52 -78.5 -82t-79.5 -30q-23 0 -23 4q0 5 9 6t23 3.5t36 19.5t43 49q10 12 18 26t13.5 25t10.5 25.5t6.5 21t5 19.5t3.5 14q0 4 -1 6q-1 1 -1 2q0 5 53.5 21t71.5 16q5 0 7.5 -34.5t4 -81.5t3.5 -63q31 37 67 82.5t41 51.5 q15 18 31 34q29 33 39 56q24 -24 28 -29q31 -35 31 -57q0 -31 -35 -68v-2l-186 -186q11 -64 37 -124.5t63 -60.5q31 0 65 22t49 38.5t38 44.5q14 17 25 31.5t16 22t8.5 12.5t5.5 6.5t4 1.5q6 0 8 -2q7 -4 7 -9q-2 -7 -9 -24t-25 -49t-40 -60q-1 -1 -16 -20.5t-25 -29 t-28.5 -25t-39.5 -22.5t-45 -7q-108 0 -174 178q-75 -75 -157.5 -156.5t-120 -118.5t-37.5 -38q-13 0 -13 10z" />
<glyph unicode="y" horiz-adv-x="563" d="M-94 -137q0 37 20 63.5t49.5 38t52.5 16.5t40 5q12 0 30.5 -1t26.5 -1q16 0 26.5 2t18 10.5t9.5 12t8 20.5t8 22q-55 -55 -113 -55q-41 0 -74 40t-33 109q0 83 37 188.5t72 168.5l45 106q12 0 54 -35t42 -65q0 -23 -38.5 -95t-76.5 -158.5t-38 -143.5q0 -62 39 -62 q40 0 88 58.5t86 179.5q21 71 40.5 120t29.5 69.5t12 33.5q92 -42 92 -109q0 -22 -15 -49q-59 -105 -72 -146q-16 -48 -16 -97q0 -28 6.5 -40t28.5 -12q40 0 91 46t89 133q2 0 4 2q7 0 9 -2q8 -5 8 -9v2l-6 -24q-7 -24 -21 -58.5t-36.5 -68.5t-61.5 -58t-88 -24 q-53 0 -84 39q-5 -13 -16 -34t-13 -26q153 -36 250 -36q25 0 31 2q0 -45 -27 -79t-74 -34q-12 0 -25.5 1.5t-31.5 5.5t-30.5 6.5t-35.5 9.5t-33.5 10t-37.5 11.5t-35 10.5q-73 -127 -184 -127q-14 0 -29.5 2.5t-40.5 11.5t-41 33t-16 60zM-53 -147q0 -25 20 -38.5t47 -13.5 q63 0 115 90q6 3 23 3q4 0 11.5 -1.5t10.5 -1.5h10l-51 13q-78 15 -92 16q-40 0 -67 -16.5t-27 -50.5z" />
<glyph unicode="z" horiz-adv-x="501" d="M-41 139q0 31 8 47q105 173 266 281q-118 -41 -172 -41q-26 0 -41.5 5.5t-21.5 18t-7 21.5t-1 27v37q0 10 2 14q28 -12 106 -20.5t142 -8.5q132 0 190 58q3 -16 10 -33q13 -39 13 -62q0 -14 -4 -26q-4 -14 -69.5 -50.5t-140.5 -77t-137.5 -98t-62.5 -108.5q0 -38 28 -57 t68 -19q29 0 53 8q0 43 16 77t39.5 54.5t53.5 34t55.5 18.5t48.5 5q26 -4 27 -4q29 -12 29 -39q0 -50 -85 -107t-155 -82q4 -17 12 -32.5t17 -26.5t17.5 -19.5t14.5 -13.5l5 -4q0 -8 -4 -8t-17.5 9.5t-33 33t-29.5 53.5q-67 -20 -99 -20q-59 0 -100 48t-41 107zM217 66 q164 67 164 114q0 7 -8 10q-52 -2 -98.5 -35t-57.5 -89z" />
<glyph unicode="&#xa8;" horiz-adv-x="372" d="M72 647q0 5 8 24t8 64q0 9 -4 21q1 -1 21 -1.5t37.5 -8t17.5 -25.5q0 -12 -2 -14q-9 -12 -15 -27q-14 -25 -14 -55q0 -15 2 -17h-12q-47 0 -47 39zM215 649q0 2 8 25.5t8 62.5q0 7 -4 19q1 -1 20.5 -2t37.5 -8.5t18 -22.5q0 -4 -7.5 -14.5t-15.5 -31t-8 -50.5 q0 -15 2 -19h-12q-47 0 -47 41z" />
<glyph unicode="&#xad;" horiz-adv-x="507" d="M66 401q0 35 67 35q100 0 143 2q148 4 158 17v-19q0 -4 1 -16.5t1 -20.5q0 -15 -8 -22.5t-35 -7.5q-10 1 -32 2t-33 2q-78 4 -135 4q-97 0 -121 -12l-4 12q-2 4 -2 24z" />
<glyph unicode="&#xb4;" horiz-adv-x="456" d="M55 676l4 8q0 1 1 2t1 2l2 2q64 -16 99 -16q18 0 34.5 2.5t29 6t25 9.5t20 10.5t16.5 12t12.5 11l10.5 10.5l7 7q29 36 39 54q6 0 25.5 -27.5t19.5 -44.5q0 -32 -34.5 -55t-72.5 -31t-71 -8q-39 0 -80.5 9.5t-64.5 20t-23 15.5z" />
<glyph unicode="&#xb8;" horiz-adv-x="335" d="M63 -20q0 19 14 28.5t33 12.5t21 4q8 -45 27 -56q8 -8 22 -8h-2q20 -4 25 -4q24 0 24 25q0 7 -20.5 34t-20.5 39q0 10 3 19t7 14l3 4q0 -2 2 -2q1 0 2 -1t2 -1q2 -2 6 -2v-7q0 -13 2 -19.5t12.5 -17t36.5 -30.5q12 -12 12 -35q-12 -81 -94 -81q-31 0 -54 8.5t-34.5 19.5 t-18.5 24t-8.5 20.5t-1.5 11.5z" />
<glyph unicode="&#xbf;" horiz-adv-x="727" d="M76 92q0 62 26.5 119.5t69.5 102.5t86 81t88 72t64 59q29 34 48.5 64t27 49t11 33.5t3.5 22t3 11t11 3.5q12 0 12 -13q0 -35 -42.5 -122t-123.5 -158q-206 -172 -206 -312q0 -76 47 -116.5t110 -40.5q54 0 95 21.5t62 55.5t30.5 68.5t9.5 67.5q0 127 -88 200q8 5 21 12.5 t44.5 19.5t51.5 11q27 0 59 -51v-2q15 0 28 -64t13 -104q0 -109 -53 -198.5t-160 -124.5q-40 -15 -92 -15q-108 0 -182 71.5t-74 176.5zM483 748q0 5 8.5 15.5t17.5 29.5t9 45q0 10 -2 12h12q45 0 45 -33q0 -4 -10 -26.5t-10 -57.5q0 -2 4 -14q-6 0 -15.5 1t-24 3.5t-24.5 9 t-10 15.5z" />
<glyph unicode="&#xc0;" horiz-adv-x="1212" d="M33 279q0 77 41 135t99.5 87t127.5 38q216 24 461 24q50 80 114.5 146t123.5 104t109 58t83 20q28 0 40.5 -15t12.5 -65q0 -21 -24.5 -63.5t-63 -101.5t-57.5 -97q96 0 128 -17t32 -47q0 -20 -5 -65q-2 -10 -2 -33q-25 18 -58.5 24t-87.5 7t-69 2q-84 -181 -84 -270 q0 -45 26 -75t77 -30q17 0 78 16q26 11 46 21.5t31 17.5t18 12.5t10.5 8t4.5 2.5q5 0 10 -4t5 -8v2q-1 0 -7.5 -9t-20 -22.5t-34 -29t-55 -30t-76.5 -22.5q-20 -4 -25 -4q-51 0 -102 42t-51 99q0 125 51 291q-19 0 -133 14q-18 -29 -53 -85t-62.5 -101.5t-50.5 -85.5 q-51 -90 -139 -159.5t-183 -69.5q-69 0 -131 47q-71 49 -113 128.5t-42 162.5zM96 281q0 -99 71.5 -178.5t151.5 -79.5q35 0 68.5 14t64 42.5t56.5 59t54 76t47 79.5t46.5 84.5t42.5 76.5q-202 26 -331 26q-59 0 -121 -6q-69 -10 -109.5 -66.5t-40.5 -127.5zM891 561 q16 -1 47 -2t47 -2q33 90 70 166q-89 -63 -164 -162zM1034 1057q0 10 21 39q17 17 22 20q9 -15 39 -53l7 -7l10.5 -10.5t13 -11.5t17 -12.5t20 -10.5t25 -9.5t29 -6t34.5 -2.5q30 0 98 17h2v-2q0 -4 2 -4q4 -10 4 -9q0 -5 -23 -15.5t-64.5 -20t-80.5 -9.5q-33 0 -71.5 10 t-71.5 36t-33 61z" />
<glyph unicode="&#xc1;" horiz-adv-x="1212" d="M33 279q0 77 41 135t99.5 87t127.5 38q216 24 461 24q50 80 114.5 146t123.5 104t109 58t83 20q28 0 40.5 -15t12.5 -65q0 -21 -24.5 -63.5t-63 -101.5t-57.5 -97q96 0 128 -17t32 -47q0 -20 -5 -65q-2 -10 -2 -33q-25 18 -58.5 24t-87.5 7t-69 2q-84 -181 -84 -270 q0 -45 26 -75t77 -30q17 0 78 16q26 11 46 21.5t31 17.5t18 12.5t10.5 8t4.5 2.5q5 0 10 -4t5 -8v2q-1 0 -7.5 -9t-20 -22.5t-34 -29t-55 -30t-76.5 -22.5q-20 -4 -25 -4q-51 0 -102 42t-51 99q0 125 51 291q-19 0 -133 14q-18 -29 -53 -85t-62.5 -101.5t-50.5 -85.5 q-51 -90 -139 -159.5t-183 -69.5q-69 0 -131 47q-71 49 -113 128.5t-42 162.5zM96 281q0 -99 71.5 -178.5t151.5 -79.5q35 0 68.5 14t64 42.5t56.5 59t54 76t47 79.5t46.5 84.5t42.5 76.5q-202 26 -331 26q-59 0 -121 -6q-69 -10 -109.5 -66.5t-40.5 -127.5zM891 561 q16 -1 47 -2t47 -2q33 90 70 166q-89 -63 -164 -162zM997 995l4 9q0 1 1.5 2t1.5 2l2 2q68 -17 98 -17q18 0 34.5 2.5t29 6t25 9.5t20 10.5t17 12.5t13 11.5l10.5 10.5l7 7q27 34 38 53q6 0 25.5 -27.5t19.5 -44.5q0 -32 -34.5 -55t-72.5 -31t-71 -8q-39 0 -80.5 9.5 t-64.5 20t-23 15.5z" />
<glyph unicode="&#xc2;" horiz-adv-x="1212" d="M33 279q0 77 41 135t99.5 87t127.5 38q216 24 461 24q50 80 114.5 146t123.5 104t109 58t83 20q28 0 40.5 -15t12.5 -65q0 -21 -24.5 -63.5t-63 -101.5t-57.5 -97q96 0 128 -17t32 -47q0 -20 -5 -65q-2 -10 -2 -33q-25 18 -58.5 24t-87.5 7t-69 2q-84 -181 -84 -270 q0 -45 26 -75t77 -30q17 0 78 16q26 11 46 21.5t31 17.5t18 12.5t10.5 8t4.5 2.5q5 0 10 -4t5 -8v2q-1 0 -7.5 -9t-20 -22.5t-34 -29t-55 -30t-76.5 -22.5q-20 -4 -25 -4q-51 0 -102 42t-51 99q0 125 51 291q-19 0 -133 14q-18 -29 -53 -85t-62.5 -101.5t-50.5 -85.5 q-51 -90 -139 -159.5t-183 -69.5q-69 0 -131 47q-71 49 -113 128.5t-42 162.5zM96 281q0 -99 71.5 -178.5t151.5 -79.5q35 0 68.5 14t64 42.5t56.5 59t54 76t47 79.5t46.5 84.5t42.5 76.5q-202 26 -331 26q-59 0 -121 -6q-69 -10 -109.5 -66.5t-40.5 -127.5zM891 561 q16 -1 47 -2t47 -2q33 90 70 166q-89 -63 -164 -162zM967 1020l8 12q48 -16 92 -16q41 0 70.5 16.5t45.5 32.5t25 16q20 0 30 -13t12.5 -29.5t17 -36.5t41.5 -31q16 -8 34.5 -13.5t31 -7t24.5 -3t14 -1.5v-2q0 -4 3 -7l3 -3q0 -12 -61 -12q-111 0 -162 79q-38 -28 -96 -28 q-32 0 -64.5 10.5t-50.5 21t-18 15.5z" />
<glyph unicode="&#xc3;" horiz-adv-x="1212" d="M33 279q0 77 41 135t99.5 87t127.5 38q216 24 461 24q50 80 114.5 146t123.5 104t109 58t83 20q28 0 40.5 -15t12.5 -65q0 -21 -24.5 -63.5t-63 -101.5t-57.5 -97q96 0 128 -17t32 -47q0 -20 -5 -65q-2 -10 -2 -33q-25 18 -58.5 24t-87.5 7t-69 2q-84 -181 -84 -270 q0 -45 26 -75t77 -30q17 0 78 16q26 11 46 21.5t31 17.5t18 12.5t10.5 8t4.5 2.5q5 0 10 -4t5 -8v2q-1 0 -7.5 -9t-20 -22.5t-34 -29t-55 -30t-76.5 -22.5q-20 -4 -25 -4q-51 0 -102 42t-51 99q0 125 51 291q-19 0 -133 14q-18 -29 -53 -85t-62.5 -101.5t-50.5 -85.5 q-51 -90 -139 -159.5t-183 -69.5q-69 0 -131 47q-71 49 -113 128.5t-42 162.5zM96 281q0 -99 71.5 -178.5t151.5 -79.5q35 0 68.5 14t64 42.5t56.5 59t54 76t47 79.5t46.5 84.5t42.5 76.5q-202 26 -331 26q-59 0 -121 -6q-69 -10 -109.5 -66.5t-40.5 -127.5zM891 561 q16 -1 47 -2t47 -2q33 90 70 166q-89 -63 -164 -162zM993 1008q0 28 17.5 44.5t42.5 16.5q36 0 101.5 -12.5t84.5 -12.5q17 0 26 1.5t21 7t18.5 19t8.5 36.5q12 0 25 -2t27.5 -13t14.5 -30q0 -30 -26 -57t-80 -27q-18 0 -40 5t-36.5 10t-38.5 14.5t-31 11.5q-11 3 -26.5 8.5 t-27 8.5t-23.5 3q-23 0 -31 -11.5t-8 -22.5q0 -5 1 -11l1 -6l-2 -3q-2 -3 -8 -3l-7 6q-4 12 -4 19z" />
<glyph unicode="&#xc4;" horiz-adv-x="1212" d="M33 279q0 77 41 135t99.5 87t127.5 38q216 24 461 24q50 80 114.5 146t123.5 104t109 58t83 20q28 0 40.5 -15t12.5 -65q0 -21 -24.5 -63.5t-63 -101.5t-57.5 -97q96 0 128 -17t32 -47q0 -20 -5 -65q-2 -10 -2 -33q-25 18 -58.5 24t-87.5 7t-69 2q-84 -181 -84 -270 q0 -45 26 -75t77 -30q17 0 78 16q26 11 46 21.5t31 17.5t18 12.5t10.5 8t4.5 2.5q5 0 10 -4t5 -8v2q-1 0 -7.5 -9t-20 -22.5t-34 -29t-55 -30t-76.5 -22.5q-20 -4 -25 -4q-51 0 -102 42t-51 99q0 125 51 291q-19 0 -133 14q-18 -29 -53 -85t-62.5 -101.5t-50.5 -85.5 q-51 -90 -139 -159.5t-183 -69.5q-69 0 -131 47q-71 49 -113 128.5t-42 162.5zM96 281q0 -99 71.5 -178.5t151.5 -79.5q35 0 68.5 14t64 42.5t56.5 59t54 76t47 79.5t46.5 84.5t42.5 76.5q-202 26 -331 26q-59 0 -121 -6q-69 -10 -109.5 -66.5t-40.5 -127.5zM891 561 q16 -1 47 -2t47 -2q33 90 70 166q-89 -63 -164 -162zM1083 967q0 5 8.5 24t8.5 64q0 8 -4 20q1 -1 21 -2t37 -8t17 -25q0 -12 -2 -14q-7 -9 -14 -27q-14 -25 -14 -55q0 -14 2 -16h-13q-47 0 -47 39zM1227 969q0 2 8 25.5t8 62.5q0 6 -4 18q1 -1 20.5 -2t37.5 -8.5t18 -22.5 q0 -4 -7.5 -14.5t-15.5 -31t-8 -50.5q0 -14 2 -18h-12q-47 0 -47 41z" />
<glyph unicode="&#xc5;" horiz-adv-x="1212" d="M33 279q0 77 41 135t99.5 87t127.5 38q216 24 461 24q50 80 114.5 146t123.5 104t109 58t83 20q28 0 40.5 -15t12.5 -65q0 -21 -24.5 -63.5t-63 -101.5t-57.5 -97q96 0 128 -17t32 -47q0 -20 -5 -65q-2 -10 -2 -33q-25 18 -58.5 24t-87.5 7t-69 2q-84 -181 -84 -270 q0 -45 26 -75t77 -30q17 0 78 16q26 11 46 21.5t31 17.5t18 12.5t10.5 8t4.5 2.5q5 0 10 -4t5 -8v2q-1 0 -7.5 -9t-20 -22.5t-34 -29t-55 -30t-76.5 -22.5q-20 -4 -25 -4q-51 0 -102 42t-51 99q0 125 51 291q-19 0 -133 14q-18 -29 -53 -85t-62.5 -101.5t-50.5 -85.5 q-51 -90 -139 -159.5t-183 -69.5q-69 0 -131 47q-71 49 -113 128.5t-42 162.5zM96 281q0 -99 71.5 -178.5t151.5 -79.5q35 0 68.5 14t64 42.5t56.5 59t54 76t47 79.5t46.5 84.5t42.5 76.5q-202 26 -331 26q-59 0 -121 -6q-69 -10 -109.5 -66.5t-40.5 -127.5zM891 561 q16 -1 47 -2t47 -2q33 90 70 166q-89 -63 -164 -162zM1163 997q0 21 8 39q19 27 66 16t66 -38q2 -2 2 -8t-17 -45q-3 -10 -12 -13q-73 -4 -113 49zM1202 999q13 -22 51 -22q0 1 2 3t2 3q7 18 7 21v4q-8 11 -29.5 16t-28.5 -6q-4 -12 -4 -19z" />
<glyph unicode="&#xc7;" horiz-adv-x="733" d="M-29 -111q0 19 14 28.5t33 12.5t21 4q8 -44 27 -55q8 -8 22 -8h-2q20 -4 25 -4q24 0 24 24q0 7 -20.5 34.5t-20.5 39.5q0 10 3 19t6 14l3 4q0 -2 3 -2q1 0 2 -1t2 -1q2 -2 6 -2v-7q0 -13 2 -19.5t12.5 -17t36.5 -30.5q12 -12 12 -35q-12 -82 -94 -82q-31 0 -54 8.5 t-34.5 19.5t-18.5 24t-8.5 20.5t-1.5 11.5zM25 184q-2 120 48 246t133 225.5t198.5 163.5t234.5 64q110 0 172.5 -33t67.5 -78q0 -10 -2 -12q-41 -66 -66.5 -124.5t-32 -90t-10.5 -54t-8 -26.5l-4 -2q-81 8 -111 59q-15 21 -18 53q0 60 63 168q-28 7 -53 7q-80 0 -172 -49.5 t-167.5 -128t-126 -185.5t-50.5 -211q0 -99 36.5 -154t131.5 -55q98 0 197 51.5t159 124.5q38 45 63 84.5t33.5 60t14 35.5t10 20t14.5 5q11 0 11 -12q0 -44 -56 -141.5t-162 -178.5q-156 -116 -305 -116q-105 0 -174 82t-69 202z" />
<glyph unicode="&#xc8;" horiz-adv-x="1214" d="M25 412q0 109 46.5 207t141.5 167q147 86 332 86q35 0 75 -3t65.5 -6t70 -9t59.5 -8q144 -21 227 -21q63 0 118 8t88 18.5t57.5 21.5t37 18t15.5 6q22 -46 22 -78q0 -36 -22 -67q-12 -17 -21 -23q-18 -14 -79 -27.5t-148 -13.5q-64 0 -201 19q4 -20 4 -23 q-11 -5 -33 -16.5t-34 -16.5q-65 -30 -103 -65q277 -60 277 -68h2q4 -4 4 -12t-6 -14l-4 -3v3q-15 -5 -119 -5q-35 0 -116 1t-122 1q-106 -139 -106 -278q0 -95 48.5 -164t141.5 -76q72 3 138 24.5t114 52.5t88.5 69t67 74.5t45.5 69t27 52t8 23.5q0 2 2 4q4 4 10 4 q12 0 12 -10q0 -64 -46.5 -142.5t-117 -143.5t-161 -109.5t-170.5 -44.5q-138 0 -223.5 101.5t-85.5 240.5q0 129 67 256q-40 0 -51.5 16.5t-11.5 46.5v43q0 14 2 20q13 -9 50.5 -14.5t55.5 -5.5v-2q3 0 8.5 1t8.5 1q62 91 139 145q-121 27 -219 27q-82 0 -155 -22.5 t-133 -67t-95 -120.5t-35 -175q0 -140 77 -219.5t181 -79.5q15 0 29.5 2t23 4t10.5 2q15 0 15 -12q0 -4 -7 -9t-32.5 -10.5t-65.5 -5.5q-33 0 -68 9t-75.5 34t-71.5 63.5t-52 103t-21 145.5zM819 1057q0 10 21 39q17 17 22 20q8 -15 39 -53l7 -7l10.5 -10.5t13 -11.5 t17 -12.5t20 -10.5t25 -9.5t29 -6t34.5 -2.5q30 0 98 17h2v-2q0 -4 2 -4q4 -10 4 -9q0 -5 -23 -15.5t-64.5 -20t-80.5 -9.5q-33 0 -71.5 10t-71.5 36t-33 61z" />
<glyph unicode="&#xc9;" horiz-adv-x="1214" d="M25 412q0 109 46.5 207t141.5 167q147 86 332 86q35 0 75 -3t65.5 -6t70 -9t59.5 -8q144 -21 227 -21q63 0 118 8t88 18.5t57.5 21.5t37 18t15.5 6q22 -46 22 -78q0 -36 -22 -67q-12 -17 -21 -23q-18 -14 -79 -27.5t-148 -13.5q-64 0 -201 19q4 -20 4 -23 q-11 -5 -33 -16.5t-34 -16.5q-65 -30 -103 -65q277 -60 277 -68h2q4 -4 4 -12t-6 -14l-4 -3v3q-15 -5 -119 -5q-35 0 -116 1t-122 1q-106 -139 -106 -278q0 -95 48.5 -164t141.5 -76q72 3 138 24.5t114 52.5t88.5 69t67 74.5t45.5 69t27 52t8 23.5q0 2 2 4q4 4 10 4 q12 0 12 -10q0 -64 -46.5 -142.5t-117 -143.5t-161 -109.5t-170.5 -44.5q-138 0 -223.5 101.5t-85.5 240.5q0 129 67 256q-40 0 -51.5 16.5t-11.5 46.5v43q0 14 2 20q13 -9 50.5 -14.5t55.5 -5.5v-2q3 0 8.5 1t8.5 1q62 91 139 145q-121 27 -219 27q-82 0 -155 -22.5 t-133 -67t-95 -120.5t-35 -175q0 -140 77 -219.5t181 -79.5q15 0 29.5 2t23 4t10.5 2q15 0 15 -12q0 -4 -7 -9t-32.5 -10.5t-65.5 -5.5q-33 0 -68 9t-75.5 34t-71.5 63.5t-52 103t-21 145.5zM821 995l4 9q0 1 1 2t1 2l2 2q68 -17 99 -17q18 0 34.5 2.5t29 6t24.5 9.5t20 11 t17 12t13 11t10 10.5t7 7.5q31 38 39 53q6 0 25.5 -27.5t19.5 -44.5q0 -32 -34.5 -55t-72.5 -31t-71 -8q-39 0 -80.5 9.5t-64.5 20t-23 15.5z" />
<glyph unicode="&#xca;" horiz-adv-x="1214" d="M25 412q0 109 46.5 207t141.5 167q147 86 332 86q35 0 75 -3t65.5 -6t70 -9t59.5 -8q144 -21 227 -21q63 0 118 8t88 18.5t57.5 21.5t37 18t15.5 6q22 -46 22 -78q0 -36 -22 -67q-12 -17 -21 -23q-18 -14 -79 -27.5t-148 -13.5q-64 0 -201 19q4 -20 4 -23 q-11 -5 -33 -16.5t-34 -16.5q-65 -30 -103 -65q277 -60 277 -68h2q4 -4 4 -12t-6 -14l-4 -3v3q-15 -5 -119 -5q-35 0 -116 1t-122 1q-106 -139 -106 -278q0 -95 48.5 -164t141.5 -76q72 3 138 24.5t114 52.5t88.5 69t67 74.5t45.5 69t27 52t8 23.5q0 2 2 4q4 4 10 4 q12 0 12 -10q0 -64 -46.5 -142.5t-117 -143.5t-161 -109.5t-170.5 -44.5q-138 0 -223.5 101.5t-85.5 240.5q0 129 67 256q-40 0 -51.5 16.5t-11.5 46.5v43q0 14 2 20q13 -9 50.5 -14.5t55.5 -5.5v-2q3 0 8.5 1t8.5 1q62 91 139 145q-121 27 -219 27q-82 0 -155 -22.5 t-133 -67t-95 -120.5t-35 -175q0 -140 77 -219.5t181 -79.5q15 0 29.5 2t23 4t10.5 2q15 0 15 -12q0 -4 -7 -9t-32.5 -10.5t-65.5 -5.5q-33 0 -68 9t-75.5 34t-71.5 63.5t-52 103t-21 145.5zM764 995l8 13q51 -17 92 -17q32 0 58 10.5t39 22.5t25 22.5t20 10.5q20 0 30 -13 t12 -30t16.5 -37t41.5 -31q16 -8 34.5 -13t31 -7t24.5 -3t14 -1v-2q0 -4 3.5 -7t3.5 -4q0 -12 -62 -12q-44 0 -89 18.5t-73 61.5q-39 -29 -96 -29q-32 0 -64.5 10.5t-50.5 21t-18 15.5z" />
<glyph unicode="&#xcb;" horiz-adv-x="1214" d="M25 412q0 109 46.5 207t141.5 167q147 86 332 86q35 0 75 -3t65.5 -6t70 -9t59.5 -8q144 -21 227 -21q63 0 118 8t88 18.5t57.5 21.5t37 18t15.5 6q22 -46 22 -78q0 -36 -22 -67q-12 -17 -21 -23q-18 -14 -79 -27.5t-148 -13.5q-64 0 -201 19q4 -20 4 -23 q-11 -5 -33 -16.5t-34 -16.5q-65 -30 -103 -65q277 -60 277 -68h2q4 -4 4 -12t-6 -14l-4 -3v3q-15 -5 -119 -5q-35 0 -116 1t-122 1q-106 -139 -106 -278q0 -95 48.5 -164t141.5 -76q72 3 138 24.5t114 52.5t88.5 69t67 74.5t45.5 69t27 52t8 23.5q0 2 2 4q4 4 10 4 q12 0 12 -10q0 -64 -46.5 -142.5t-117 -143.5t-161 -109.5t-170.5 -44.5q-138 0 -223.5 101.5t-85.5 240.5q0 129 67 256q-40 0 -51.5 16.5t-11.5 46.5v43q0 14 2 20q13 -9 50.5 -14.5t55.5 -5.5v-2q3 0 8.5 1t8.5 1q62 91 139 145q-121 27 -219 27q-82 0 -155 -22.5 t-133 -67t-95 -120.5t-35 -175q0 -140 77 -219.5t181 -79.5q15 0 29.5 2t23 4t10.5 2q15 0 15 -12q0 -4 -7 -9t-32.5 -10.5t-65.5 -5.5q-33 0 -68 9t-75.5 34t-71.5 63.5t-52 103t-21 145.5zM874 967q0 5 8.5 24t8.5 64q0 8 -4 20q1 -1 21 -1.5t37.5 -8t17.5 -25.5 q0 -12 -2 -14q-9 -12 -15 -27q-14 -25 -14 -55q0 -14 2 -16h-12q-48 0 -48 39zM1018 969q0 2 8 25.5t8 62.5q0 6 -4 18q1 -1 20.5 -2t37.5 -8.5t18 -22.5q0 -4 -8 -14.5t-15.5 -31t-7.5 -50.5q0 -14 2 -18h-12q-47 0 -47 41z" />
<glyph unicode="&#xcc;" horiz-adv-x="860" d="M29 471q0 94 47.5 167t124.5 114t163 61.5t175 20.5q32 0 123 -4.5t172 -6.5t167 0t141 16t62 40q23 -44 23 -76q0 -36 -23 -68q-8 -13 -20 -22q-24 -14 -86 -27.5t-154 -13.5q-23 0 -33 2q2 -2 7.5 -6.5t7 -7t4 -8t3.5 -13.5t1 -21q0 -24 -10 -47 q-63 -117 -147.5 -321.5t-90.5 -269.5q54 -9 101 -26.5t67 -29.5q0 -11 -12.5 -42t-25.5 -57t-15 -26q-44 49 -148 84t-186.5 46.5t-132.5 11.5q-19 0 -19 -2q-2 0 -4 2q-4 4 -4 16t96.5 23.5t204.5 11.5q0 1 -2.5 4.5t-3 11t-0.5 31.5q0 19 14 80q32 123 107 312.5 t90 254.5q-29 4 -149 26.5t-191 22.5q-69 0 -135.5 -16t-124.5 -47.5t-93.5 -86.5t-35.5 -126q0 -79 48 -122.5t134 -43.5q19 0 36 2.5t27 5t11 2.5l2 -1q2 0 6 -3.5t4 -9.5q0 -4 -10 -9.5t-34 -11t-58 -8.5q-21 0 -45 4t-57 17.5t-58 35.5t-43 62t-18 92zM688 1057 q0 10 21 39q17 17 22 20q9 -15 39 -53l7 -7l10.5 -10.5t13 -11.5t17 -12.5t20 -10.5t25 -9.5t29 -6t34.5 -2.5q30 0 98 17h2v-2q0 -4 2 -4q4 -10 4 -9q0 -5 -23 -15.5t-64.5 -20t-80.5 -9.5q-33 0 -71.5 10t-71.5 36t-33 61z" />
<glyph unicode="&#xcd;" horiz-adv-x="860" d="M29 471q0 94 47.5 167t124.5 114t163 61.5t175 20.5q32 0 123 -4.5t172 -6.5t167 0t141 16t62 40q23 -44 23 -76q0 -36 -23 -68q-8 -13 -20 -22q-24 -14 -86 -27.5t-154 -13.5q-23 0 -33 2q2 -2 7.5 -6.5t7 -7t4 -8t3.5 -13.5t1 -21q0 -24 -10 -47 q-63 -117 -147.5 -321.5t-90.5 -269.5q54 -9 101 -26.5t67 -29.5q0 -11 -12.5 -42t-25.5 -57t-15 -26q-44 49 -148 84t-186.5 46.5t-132.5 11.5q-19 0 -19 -2q-2 0 -4 2q-4 4 -4 16t96.5 23.5t204.5 11.5q0 1 -2.5 4.5t-3 11t-0.5 31.5q0 19 14 80q32 123 107 312.5 t90 254.5q-29 4 -149 26.5t-191 22.5q-69 0 -135.5 -16t-124.5 -47.5t-93.5 -86.5t-35.5 -126q0 -79 48 -122.5t134 -43.5q19 0 36 2.5t27 5t11 2.5l2 -1q2 0 6 -3.5t4 -9.5q0 -4 -10 -9.5t-34 -11t-58 -8.5q-21 0 -45 4t-57 17.5t-58 35.5t-43 62t-18 92zM688 995l4 9 q0 1 1 2t1 2l2 2q68 -17 99 -17q18 0 34.5 2.5t29 6t24.5 9.5t20 11t17 12t13 11t10 10.5t7 7.5q30 38 39 53q6 0 25.5 -27.5t19.5 -44.5q0 -32 -34.5 -55t-72.5 -31t-71 -8q-39 0 -80.5 9.5t-64.5 20t-23 15.5z" />
<glyph unicode="&#xce;" horiz-adv-x="860" d="M29 471q0 94 47.5 167t124.5 114t163 61.5t175 20.5q32 0 123 -4.5t172 -6.5t167 0t141 16t62 40q23 -44 23 -76q0 -36 -23 -68q-8 -13 -20 -22q-24 -14 -86 -27.5t-154 -13.5q-23 0 -33 2q2 -2 7.5 -6.5t7 -7t4 -8t3.5 -13.5t1 -21q0 -24 -10 -47 q-63 -117 -147.5 -321.5t-90.5 -269.5q54 -9 101 -26.5t67 -29.5q0 -11 -12.5 -42t-25.5 -57t-15 -26q-44 49 -148 84t-186.5 46.5t-132.5 11.5q-19 0 -19 -2q-2 0 -4 2q-4 4 -4 16t96.5 23.5t204.5 11.5q0 1 -2.5 4.5t-3 11t-0.5 31.5q0 19 14 80q32 123 107 312.5 t90 254.5q-29 4 -149 26.5t-191 22.5q-69 0 -135.5 -16t-124.5 -47.5t-93.5 -86.5t-35.5 -126q0 -79 48 -122.5t134 -43.5q19 0 36 2.5t27 5t11 2.5l2 -1q2 0 6 -3.5t4 -9.5q0 -4 -10 -9.5t-34 -11t-58 -8.5q-21 0 -45 4t-57 17.5t-58 35.5t-43 62t-18 92zM635 995l8 13 q51 -17 92 -17q32 0 58 10.5t39 22.5t25 22.5t20 10.5q20 0 30 -13t12 -30t16.5 -37t41.5 -31q16 -8 34.5 -13t31 -7t24.5 -3t14 -1v-2q0 -4 3 -7t3 -4q0 -12 -61 -12q-44 0 -89 18.5t-73 61.5q-39 -29 -96 -29q-32 0 -64.5 10.5t-50.5 21t-18 15.5z" />
<glyph unicode="&#xcf;" horiz-adv-x="860" d="M29 471q0 94 47.5 167t124.5 114t163 61.5t175 20.5q32 0 123 -4.5t172 -6.5t167 0t141 16t62 40q23 -44 23 -76q0 -36 -23 -68q-8 -13 -20 -22q-24 -14 -86 -27.5t-154 -13.5q-23 0 -33 2q2 -2 7.5 -6.5t7 -7t4 -8t3.5 -13.5t1 -21q0 -24 -10 -47 q-63 -117 -147.5 -321.5t-90.5 -269.5q54 -9 101 -26.5t67 -29.5q0 -11 -12.5 -42t-25.5 -57t-15 -26q-44 49 -148 84t-186.5 46.5t-132.5 11.5q-19 0 -19 -2q-2 0 -4 2q-4 4 -4 16t96.5 23.5t204.5 11.5q0 1 -2.5 4.5t-3 11t-0.5 31.5q0 19 14 80q32 123 107 312.5 t90 254.5q-29 4 -149 26.5t-191 22.5q-69 0 -135.5 -16t-124.5 -47.5t-93.5 -86.5t-35.5 -126q0 -79 48 -122.5t134 -43.5q19 0 36 2.5t27 5t11 2.5l2 -1q2 0 6 -3.5t4 -9.5q0 -4 -10 -9.5t-34 -11t-58 -8.5q-21 0 -45 4t-57 17.5t-58 35.5t-43 62t-18 92zM745 967 q0 5 8.5 24t8.5 64q0 8 -4 20q1 -1 21 -1.5t37.5 -8t17.5 -25.5q0 -11 -3 -14q-7 -9 -14 -27q-14 -25 -14 -55q0 -14 2 -16h-12q-48 0 -48 39zM889 969q0 2 8 25.5t8 62.5q0 6 -4 18q1 -1 20.5 -2t37.5 -8.5t18 -22.5q0 -4 -7.5 -14.5t-15.5 -31t-8 -50.5q0 -14 2 -18h-12 q-47 0 -47 41z" />
<glyph unicode="&#xd1;" horiz-adv-x="1245" d="M18 236q0 130 54 246.5t149 189.5t207 78q49 0 87.5 -16t72 -41t47.5 -31q0 -7 -3 -13.5t-9.5 -11.5t-13.5 -9.5t-17.5 -8t-18.5 -6.5t-19.5 -5.5t-17.5 -4t-16 -3.5t-12 -2q-26 51 -92 51q-61 0 -130.5 -34.5t-115.5 -90.5q-58 -70 -79 -129.5t-21 -142.5 q0 -62 14.5 -115t44.5 -97t81.5 -69.5t119.5 -25.5q74 0 136 24.5t103.5 60.5t77 91.5t55.5 103.5t41 111q88 264 113 350v2q7 31 12 49q13 57 15 78q2 0 32.5 -17t61.5 -39t31 -32q0 -8 -19 -65q2 0 2 -3q-96 -196 -96 -389q0 -169 84 -282q0 95 225 716l19 54l14 43 q14 46 16 67q3 -1 47 -20q2 -1 9.5 -5t10 -5.5t9 -5.5t9 -6l7.5 -6t7.5 -7.5t5.5 -7.5t4 -8q16 -27 -4 -78q-60 -101 -177.5 -417t-117.5 -402q-90 1 -152.5 94t-95.5 260q-39 -91 -80.5 -157t-96.5 -119t-126 -80t-158 -27q-156 0 -246 93t-90 272zM938 1008 q0 28 17.5 44.5t41.5 16.5q36 0 102 -12.5t85 -12.5q17 0 26 1.5t20.5 7t18 19t8.5 36.5q13 0 25.5 -2t27.5 -13t15 -30q0 -30 -26 -57t-80 -27q-18 0 -40 5t-36.5 10t-38.5 14.5t-31 11.5q-11 3 -26.5 8.5t-27.5 8.5t-24 3q-23 0 -31 -11.5t-8 -22.5q0 -5 1 -11l1 -6l-2 -3 q-2 -3 -8 -3l-6 6q-4 12 -4 19z" />
<glyph unicode="&#xd2;" horiz-adv-x="905" d="M12 258q-7 165 89.5 333t226.5 245q7 4 20.5 12t20.5 12q41 25 55 39q2 0 12 -21t19 -51t6 -47q0 -18 -39 -47q-114 -48 -213.5 -182.5t-110.5 -288.5q-11 -139 53 -213t166 -82q82 -6 145 14t118 78l-25 13q-50 24 -85 66.5t-50 94t-20 101.5t-1 100q6 70 28.5 140.5 t58.5 132.5t91.5 98.5t120.5 30.5q51 -4 85.5 -36.5t49.5 -84t20.5 -100.5t2.5 -101q-11 -113 -61.5 -228t-110.5 -188q52 -4 88.5 11.5t71.5 48.5q23 23 39.5 43.5t24.5 32.5t13 21.5t8 13t7 3.5q12 0 12 -12q0 -7 -9 -30.5t-31.5 -58t-54 -65t-84 -50t-114.5 -15.5 q-4 0 -24 4q-81 -73 -167.5 -103.5t-201.5 -11.5q-120 24 -182.5 111.5t-67.5 216.5zM483 1057q0 10 21 39q17 17 22 20q8 -15 39 -53l7 -7l10.5 -10.5t13 -11.5t17 -12.5t20 -10.5t25 -9.5t29 -6t34.5 -2.5q30 0 98 17h2v-2q0 -4 2 -4q4 -10 4 -9q0 -5 -23 -15.5t-64.5 -20 t-80.5 -9.5q-33 0 -71.5 10t-71.5 36t-33 61zM485 375q-8 -86 25.5 -158.5t110.5 -105.5q44 67 82 162t45 176q5 62 1.5 107t-11 75.5t-19 48.5t-22.5 25.5t-21 7.5q-59 4 -121 -111t-70 -227z" />
<glyph unicode="&#xd3;" horiz-adv-x="905" d="M12 258q-7 165 89.5 333t226.5 245q7 4 20.5 12t20.5 12q41 25 55 39q2 0 12 -21t19 -51t6 -47q0 -18 -39 -47q-114 -48 -213.5 -182.5t-110.5 -288.5q-11 -139 53 -213t166 -82q82 -6 145 14t118 78l-25 13q-50 24 -85 66.5t-50 94t-20 101.5t-1 100q6 70 28.5 140.5 t58.5 132.5t91.5 98.5t120.5 30.5q51 -4 85.5 -36.5t49.5 -84t20.5 -100.5t2.5 -101q-11 -113 -61.5 -228t-110.5 -188q52 -4 88.5 11.5t71.5 48.5q23 23 39.5 43.5t24.5 32.5t13 21.5t8 13t7 3.5q12 0 12 -12q0 -7 -9 -30.5t-31.5 -58t-54 -65t-84 -50t-114.5 -15.5 q-4 0 -24 4q-81 -73 -167.5 -103.5t-201.5 -11.5q-120 24 -182.5 111.5t-67.5 216.5zM479 995l4 9q0 1 1 2t1 2l2 2q68 -17 99 -17q18 0 34.5 2.5t29 6t24.5 9.5t20 11t17 12t13 11t10 10.5t7 7.5q31 38 39 53q6 0 25.5 -27.5t19.5 -44.5q0 -32 -34.5 -55t-72.5 -31t-71 -8 q-39 0 -80.5 9.5t-64.5 20t-23 15.5zM485 375q-8 -86 25.5 -158.5t110.5 -105.5q44 67 82 162t45 176q5 62 1.5 107t-11 75.5t-19 48.5t-22.5 25.5t-21 7.5q-59 4 -121 -111t-70 -227z" />
<glyph unicode="&#xd4;" horiz-adv-x="905" d="M12 258q-7 165 89.5 333t226.5 245q7 4 20.5 12t20.5 12q41 25 55 39q2 0 12 -21t19 -51t6 -47q0 -18 -39 -47q-114 -48 -213.5 -182.5t-110.5 -288.5q-11 -139 53 -213t166 -82q82 -6 145 14t118 78l-25 13q-50 24 -85 66.5t-50 94t-20 101.5t-1 100q6 70 28.5 140.5 t58.5 132.5t91.5 98.5t120.5 30.5q51 -4 85.5 -36.5t49.5 -84t20.5 -100.5t2.5 -101q-11 -113 -61.5 -228t-110.5 -188q52 -4 88.5 11.5t71.5 48.5q23 23 39.5 43.5t24.5 32.5t13 21.5t8 13t7 3.5q12 0 12 -12q0 -7 -9 -30.5t-31.5 -58t-54 -65t-84 -50t-114.5 -15.5 q-4 0 -24 4q-81 -73 -167.5 -103.5t-201.5 -11.5q-120 24 -182.5 111.5t-67.5 216.5zM436 995l8 13q51 -17 93 -17q41 0 70.5 16.5t45.5 33t25 16.5q20 0 30 -13t12 -30t16.5 -37t41.5 -31q16 -8 35 -13t31.5 -7t24.5 -3t14 -1v-2q0 -4 3 -7t3 -4q0 -12 -62 -12 q-44 0 -88.5 18.5t-72.5 61.5q-39 -29 -97 -29q-32 0 -64.5 10.5t-50.5 21t-18 15.5zM485 375q-8 -86 25.5 -158.5t110.5 -105.5q44 67 82 162t45 176q5 62 1.5 107t-11 75.5t-19 48.5t-22.5 25.5t-21 7.5q-59 4 -121 -111t-70 -227z" />
<glyph unicode="&#xd5;" horiz-adv-x="905" d="M12 258q-7 165 89.5 333t226.5 245q7 4 20.5 12t20.5 12q41 25 55 39q2 0 12 -21t19 -51t6 -47q0 -18 -39 -47q-114 -48 -213.5 -182.5t-110.5 -288.5q-11 -139 53 -213t166 -82q82 -6 145 14t118 78l-25 13q-50 24 -85 66.5t-50 94t-20 101.5t-1 100q6 70 28.5 140.5 t58.5 132.5t91.5 98.5t120.5 30.5q51 -4 85.5 -36.5t49.5 -84t20.5 -100.5t2.5 -101q-11 -113 -61.5 -228t-110.5 -188q52 -4 88.5 11.5t71.5 48.5q23 23 39.5 43.5t24.5 32.5t13 21.5t8 13t7 3.5q12 0 12 -12q0 -7 -9 -30.5t-31.5 -58t-54 -65t-84 -50t-114.5 -15.5 q-4 0 -24 4q-81 -73 -167.5 -103.5t-201.5 -11.5q-120 24 -182.5 111.5t-67.5 216.5zM465 1008q0 28 17.5 44.5t41.5 16.5q36 0 102 -12.5t85 -12.5q17 0 26 1.5t20.5 7t18 19t8.5 36.5q13 0 25.5 -2t27.5 -13t15 -30q0 -30 -26.5 -57t-80.5 -27q-18 0 -40 5t-36 10t-38 14 t-31 12q-11 3 -26.5 8.5t-27.5 8.5t-24 3q-23 0 -31 -11.5t-8 -22.5q0 -5 1 -11l1 -6l-2 -3q-2 -3 -8 -3l-6 6q-4 12 -4 19zM485 375q-8 -86 25.5 -158.5t110.5 -105.5q44 67 82 162t45 176q5 62 1.5 107t-11 75.5t-19 48.5t-22.5 25.5t-21 7.5q-59 4 -121 -111t-70 -227z " />
<glyph unicode="&#xd6;" horiz-adv-x="905" d="M12 258q-7 165 89.5 333t226.5 245q7 4 20.5 12t20.5 12q41 25 55 39q2 0 12 -21t19 -51t6 -47q0 -18 -39 -47q-114 -48 -213.5 -182.5t-110.5 -288.5q-11 -139 53 -213t166 -82q82 -6 145 14t118 78l-25 13q-50 24 -85 66.5t-50 94t-20 101.5t-1 100q6 70 28.5 140.5 t58.5 132.5t91.5 98.5t120.5 30.5q51 -4 85.5 -36.5t49.5 -84t20.5 -100.5t2.5 -101q-11 -113 -61.5 -228t-110.5 -188q52 -4 88.5 11.5t71.5 48.5q23 23 39.5 43.5t24.5 32.5t13 21.5t8 13t7 3.5q12 0 12 -12q0 -7 -9 -30.5t-31.5 -58t-54 -65t-84 -50t-114.5 -15.5 q-4 0 -24 4q-81 -73 -167.5 -103.5t-201.5 -11.5q-120 24 -182.5 111.5t-67.5 216.5zM485 375q-8 -86 25.5 -158.5t110.5 -105.5q44 67 82 162t45 176q5 62 1.5 107t-11 75.5t-19 48.5t-22.5 25.5t-21 7.5q-59 4 -121 -111t-70 -227zM535 967q0 5 8 24t8 64q0 8 -4 20 q1 -1 21 -1.5t37.5 -8t17.5 -25.5q0 -12 -2 -14q-9 -12 -15 -27q-14 -25 -14 -55q0 -14 2 -16h-12q-47 0 -47 39zM678 969q0 2 8 25.5t8 62.5q0 6 -4 18q1 -1 20.5 -2t37.5 -8.5t18 -22.5q0 -4 -8 -14.5t-15.5 -31t-7.5 -50.5q0 -14 2 -18h-12q-47 0 -47 41z" />
<glyph unicode="&#xd7;" horiz-adv-x="667" d="M186 244q0 21 109 155q-18 48 -33 152l2 3q1 3 3.5 6.5t7.5 7t15 5.5t23 2q12 0 19.5 -5.5t10 -15.5t3.5 -23.5t0 -29.5t0 -34q11 13 33.5 39t41 48.5t32.5 45.5q3 -3 9 -8t9 -8q18 -22 18 -35q0 -22 -19 -46t-60.5 -60t-51.5 -46q14 -94 60 -110l18 -8q5 -3 3 -14 t-11.5 -20t-17.5 -3q-18 3 -54.5 43.5t-44.5 64.5q-27 -28 -49 -50t-34 -32.5t-20.5 -17.5t-11 -9t-1.5 -3q-9 0 -9 6z" />
<glyph unicode="&#xd8;" horiz-adv-x="905" d="M12 258q5 -129 67.5 -216.5t182.5 -111.5q115 -19 201.5 11.5t167.5 103.5q20 -4 24 -4q62 -4 114.5 15.5t84 50t54 65t31.5 58t9 30.5q0 12 -12 12q-5 0 -10.5 -10t-26 -39.5t-55.5 -64.5q-35 -33 -71.5 -48.5t-88.5 -11.5q60 73 110.5 188t61.5 228q3 52 -2.5 101 t-20.5 100.5t-49.5 84t-85.5 36.5q-65 6 -120.5 -30.5t-91.5 -98.5t-58.5 -132.5t-28.5 -140.5q-4 -50 1 -100t20 -101.5t50 -94t85 -66.5l25 -13q-55 -58 -118 -78t-145 -14q-102 8 -166 82t-53 213q11 154 110.5 288.5t213.5 182.5q39 29 39 47q3 17 -6 47t-19 51t-12 21 q-14 -14 -55 -39q-7 -4 -20.5 -12t-20.5 -12q-130 -77 -226.5 -245t-89.5 -333zM238 -109q2 11 123 477.5t126 512.5q7 94 7 98q12 -6 33 -12t37.5 -10t35.5 -12.5t27 -20.5t12.5 -34t-8.5 -52q-57 -185 -153.5 -427.5t-159.5 -387t-60 -144.5q-8 0 -10 2q-5 0 -8 6 q-2 2 -2 4zM485 375q-8 -86 25.5 -158.5t110.5 -105.5q44 67 82 162t45 176q5 62 1.5 107t-11 75.5t-19 48.5t-22.5 25.5t-21 7.5q-59 4 -121 -111t-70 -227z" />
<glyph unicode="&#xd9;" horiz-adv-x="1097" d="M12 471q0 10 33 11.5t94 13t111 45.5q39 18 73 46.5t53.5 55t30.5 44t13 24.5l4 9q3 8 7.5 21t9.5 27t8 28t2 23q1 -1 15 -6t28.5 -12.5t30.5 -18t26 -26.5t10 -35q0 -25 -8 -49q-4 -9 -34.5 -67t-42 -81t-36 -78.5t-35.5 -91t-22 -84.5t-12 -92q0 -61 66.5 -108 t142.5 -47q65 0 123.5 40t95.5 103q0 4 2 6q15 130 87 329.5t107 262.5q9 30 15 45q16 50 16 68q1 -1 15.5 -6.5t30 -13.5t32.5 -19.5t28 -28t11 -35.5q0 -26 -10 -49q-6 -14 -53.5 -112t-86.5 -182t-73.5 -182t-34.5 -147q0 -43 35 -43q40 0 90 46t88 133q2 0 4 2 q6 0 10.5 -2.5t6 -5t1.5 -3.5q0 -6 -5 -23.5t-20 -49.5t-36 -62q-1 -1 -9.5 -11.5t-11.5 -14t-12 -13.5t-15 -15t-16 -13t-19 -12t-20.5 -8.5t-24 -6.5t-26.5 -2q-31 0 -52.5 11.5t-43.5 45.5q-42 -55 -108 -86.5t-144 -31.5q-113 0 -205 76.5t-92 199.5q0 42 8.5 87 t17.5 73.5t24 70t20 56.5q-110 -49 -213 -49q-105 0 -105 20zM625 1057q0 11 20 39q15 15 23 20q8 -15 39 -53q1 -1 7 -7.5t10 -10.5t13 -11t17 -12t20 -11t24.5 -9.5t29 -6t34.5 -2.5q31 0 99 17h2v-2q0 -4 2 -4q4 -10 4 -9q0 -5 -23 -15.5t-64.5 -20t-80.5 -9.5 q-33 0 -71.5 10t-71.5 36t-33 61z" />
<glyph unicode="&#xda;" horiz-adv-x="1097" d="M12 471q0 10 33 11.5t94 13t111 45.5q39 18 73 46.5t53.5 55t30.5 44t13 24.5l4 9q3 8 7.5 21t9.5 27t8 28t2 23q1 -1 15 -6t28.5 -12.5t30.5 -18t26 -26.5t10 -35q0 -25 -8 -49q-4 -9 -34.5 -67t-42 -81t-36 -78.5t-35.5 -91t-22 -84.5t-12 -92q0 -61 66.5 -108 t142.5 -47q65 0 123.5 40t95.5 103q0 4 2 6q15 130 87 329.5t107 262.5q9 30 15 45q16 50 16 68q1 -1 15.5 -6.5t30 -13.5t32.5 -19.5t28 -28t11 -35.5q0 -26 -10 -49q-6 -14 -53.5 -112t-86.5 -182t-73.5 -182t-34.5 -147q0 -43 35 -43q40 0 90 46t88 133q2 0 4 2 q6 0 10.5 -2.5t6 -5t1.5 -3.5q0 -6 -5 -23.5t-20 -49.5t-36 -62q-1 -1 -9.5 -11.5t-11.5 -14t-12 -13.5t-15 -15t-16 -13t-19 -12t-20.5 -8.5t-24 -6.5t-26.5 -2q-31 0 -52.5 11.5t-43.5 45.5q-42 -55 -108 -86.5t-144 -31.5q-113 0 -205 76.5t-92 199.5q0 42 8.5 87 t17.5 73.5t24 70t20 56.5q-110 -49 -213 -49q-105 0 -105 20zM592 995l4 9q0 1 1 2t1 2l2 2q68 -17 98 -17q18 0 34.5 2.5t29 6t25 9.5t20 10.5t17 12.5t13 11.5l10.5 10.5l7 7q30 38 39 53q6 0 25.5 -27.5t19.5 -44.5q0 -32 -34.5 -55t-72.5 -31t-71 -8q-39 0 -80.5 9.5 t-64.5 20t-23 15.5z" />
<glyph unicode="&#xdb;" horiz-adv-x="1097" d="M12 471q0 10 33 11.5t94 13t111 45.5q39 18 73 46.5t53.5 55t30.5 44t13 24.5l4 9q3 8 7.5 21t9.5 27t8 28t2 23q1 -1 15 -6t28.5 -12.5t30.5 -18t26 -26.5t10 -35q0 -25 -8 -49q-4 -9 -34.5 -67t-42 -81t-36 -78.5t-35.5 -91t-22 -84.5t-12 -92q0 -61 66.5 -108 t142.5 -47q65 0 123.5 40t95.5 103q0 4 2 6q15 130 87 329.5t107 262.5q9 30 15 45q16 50 16 68q1 -1 15.5 -6.5t30 -13.5t32.5 -19.5t28 -28t11 -35.5q0 -26 -10 -49q-6 -14 -53.5 -112t-86.5 -182t-73.5 -182t-34.5 -147q0 -43 35 -43q40 0 90 46t88 133q2 0 4 2 q6 0 10.5 -2.5t6 -5t1.5 -3.5q0 -6 -5 -23.5t-20 -49.5t-36 -62q-1 -1 -9.5 -11.5t-11.5 -14t-12 -13.5t-15 -15t-16 -13t-19 -12t-20.5 -8.5t-24 -6.5t-26.5 -2q-31 0 -52.5 11.5t-43.5 45.5q-42 -55 -108 -86.5t-144 -31.5q-113 0 -205 76.5t-92 199.5q0 42 8.5 87 t17.5 73.5t24 70t20 56.5q-110 -49 -213 -49q-105 0 -105 20zM555 995l8 13q51 -17 92 -17q32 0 58 10.5t39 22.5t25 22.5t20 10.5q20 0 30 -13t12 -30t16.5 -37t41.5 -31q16 -8 34.5 -13t31 -7t24.5 -3t14 -1v-2q0 -4 3.5 -7t3.5 -4q0 -12 -62 -12q-44 0 -89 18.5t-73 61.5 q-39 -29 -96 -29q-32 0 -64.5 10.5t-50.5 21t-18 15.5z" />
<glyph unicode="&#xdc;" horiz-adv-x="1097" d="M12 471q0 10 33 11.5t94 13t111 45.5q39 18 73 46.5t53.5 55t30.5 44t13 24.5l4 9q3 8 7.5 21t9.5 27t8 28t2 23q1 -1 15 -6t28.5 -12.5t30.5 -18t26 -26.5t10 -35q0 -25 -8 -49q-4 -9 -34.5 -67t-42 -81t-36 -78.5t-35.5 -91t-22 -84.5t-12 -92q0 -61 66.5 -108 t142.5 -47q65 0 123.5 40t95.5 103q0 4 2 6q15 130 87 329.5t107 262.5q9 30 15 45q16 50 16 68q1 -1 15.5 -6.5t30 -13.5t32.5 -19.5t28 -28t11 -35.5q0 -26 -10 -49q-6 -14 -53.5 -112t-86.5 -182t-73.5 -182t-34.5 -147q0 -43 35 -43q40 0 90 46t88 133q2 0 4 2 q6 0 10.5 -2.5t6 -5t1.5 -3.5q0 -6 -5 -23.5t-20 -49.5t-36 -62q-1 -1 -9.5 -11.5t-11.5 -14t-12 -13.5t-15 -15t-16 -13t-19 -12t-20.5 -8.5t-24 -6.5t-26.5 -2q-31 0 -52.5 11.5t-43.5 45.5q-42 -55 -108 -86.5t-144 -31.5q-113 0 -205 76.5t-92 199.5q0 42 8.5 87 t17.5 73.5t24 70t20 56.5q-110 -49 -213 -49q-105 0 -105 20zM684 967q0 5 8 24t8 64q0 8 -4 20q1 -1 21 -1.5t37.5 -8t17.5 -25.5q0 -12 -2 -14q-7 -9 -14 -27q-15 -27 -15 -55q0 -14 2 -16h-12q-47 0 -47 39zM827 969q0 2 8.5 25.5t8.5 62.5q0 6 -4 18q1 -1 20.5 -2 t37 -8.5t17.5 -22.5q0 -4 -7.5 -14.5t-15 -31t-7.5 -50.5q0 -14 2 -18h-13q-47 0 -47 41z" />
<glyph unicode="&#xdd;" horiz-adv-x="894" d="M27 227q0 26 5.5 59t18 76t22 74t30 84t28 73.5t30 75t23.5 56.5l15 43q16 50 16 68q13 -4 27.5 -11t38.5 -21t39.5 -36t15.5 -47v-2q-7 -14 -27 -52l-30 -57q-4 -7 -27.5 -51.5t-32 -62t-29 -59.5t-30 -67t-21.5 -60t-17 -64.5t-5 -55.5q0 -85 66 -138.5t157 -53.5 q38 0 70.5 9t56 23t45 35.5t35 42t27 48t21 47t17.5 46t15 38.5q11 42 29.5 101.5t27.5 98.5t12 84q16 0 62.5 -31.5t46.5 -66.5q0 -22 -10 -51q0 -1 -10 -23.5t-24.5 -57.5t-28.5 -74.5t-24 -82.5t-10 -75q0 -27 7 -39.5t28 -12.5q40 0 91 46t89 133h2q3 0 5 2q14 0 14 -9 v4q-1 0 -3.5 -13t-9 -34t-16.5 -46.5t-26.5 -50.5t-37.5 -46t-53 -34t-69 -13q-46 0 -78 35q-44 -95 -80 -164q132 -21 187 -21q119 0 217 38t120 67h5q11 0 51.5 -44.5t40.5 -51.5l-2 -2v-3q-120 -98 -342 -98q-134 0 -314 49q-76 -110 -174 -110q-15 0 -28 1.5t-41 9.5 t-45 30t-17 57q0 32 12 55t33.5 35t33.5 16.5t30 8.5q11 1 21 1.5t22 -1t19 -2.5t21 -4.5t18.5 -4.5t21.5 -6t20 -6q39 96 51 135q-76 -79 -203 -79q-134 0 -215 76t-77 214zM262 -209q0 -25 20.5 -38t49.5 -13q64 0 114 88q-70 25 -104 25q-31 0 -55.5 -15t-24.5 -47z M449 893l4 8q0 1 1 2t1 2l2 2q64 -16 98 -16q18 0 34.5 2.5t29 6t25 9.5t20 10.5t17 12.5t13 11.5l10.5 10.5l7 7q31 38 39 53q6 0 25.5 -27.5t19.5 -44.5q0 -32 -34.5 -55t-73 -31t-71.5 -8q-39 0 -80 9.5t-64 20t-23 15.5z" />
<glyph unicode="&#xe0;" horiz-adv-x="540" d="M-29 199q0 79 38 159t108.5 135.5t152.5 55.5q14 0 27.5 -2t22.5 -4.5t20.5 -7.5t16.5 -8t17 -10t15 -9l8 24q12 0 56.5 -36t44.5 -66q0 -15 -21 -63h-2q-71 -129 -91 -188q-19 -57 -19 -103q0 -68 28 -68q33 0 77.5 60t78.5 168q0 2 12 2q10 -7 10 -9q0 -11 -13.5 -51.5 t-36.5 -91.5t-61.5 -90t-80.5 -39q-35 0 -65.5 28.5t-43.5 86.5q-1 -1 -7.5 -8.5t-8.5 -10t-9 -10t-11 -10.5t-12.5 -9t-15 -9t-16.5 -7.5t-19.5 -6.5t-22 -3.5t-25.5 -1.5q-44 0 -76 22t-47.5 56.5t-22 65.5t-6.5 59zM43 176q0 -133 102 -133q66 0 121 68q0 112 68 270 q-44 47 -84 47q-69 0 -138 -81.5t-69 -170.5zM195 737q0 11 20 39q18 18 23 21q13 -23 38 -54l6.5 -6.5l8.5 -8.5t10.5 -9.5t14 -11t16 -10t20 -9t23 -7.5t27 -5.5t30.5 -1.5q34 0 98 16h2v-2q0 -4 3 -4l4 -7v-1q0 -5 -23 -15.5t-64.5 -20t-80.5 -9.5q-33 0 -71.5 10 t-71.5 35.5t-33 60.5z" />
<glyph unicode="&#xe1;" horiz-adv-x="540" d="M-29 199q0 79 38 159t108.5 135.5t152.5 55.5q14 0 27.5 -2t22.5 -4.5t20.5 -7.5t16.5 -8t17 -10t15 -9l8 24q12 0 56.5 -36t44.5 -66q0 -15 -21 -63h-2q-71 -129 -91 -188q-19 -57 -19 -103q0 -68 28 -68q33 0 77.5 60t78.5 168q0 2 12 2q10 -7 10 -9q0 -11 -13.5 -51.5 t-36.5 -91.5t-61.5 -90t-80.5 -39q-35 0 -65.5 28.5t-43.5 86.5q-1 -1 -7.5 -8.5t-8.5 -10t-9 -10t-11 -10.5t-12.5 -9t-15 -9t-16.5 -7.5t-19.5 -6.5t-22 -3.5t-25.5 -1.5q-44 0 -76 22t-47.5 56.5t-22 65.5t-6.5 59zM43 176q0 -133 102 -133q66 0 121 68q0 112 68 270 q-44 47 -84 47q-69 0 -138 -81.5t-69 -170.5zM195 676l4 8q0 1 1 2t1 2l2 2q64 -16 98 -16q16 0 30.5 1.5t27 5.5t23 7.5t20 9t16 10t14 11t10.5 9.5l8.5 8.5l6.5 6.5q29 36 39 54q6 0 25.5 -27.5t19.5 -44.5q0 -32 -34.5 -55t-73 -31t-71.5 -8q-39 0 -80 9.5t-64 20 t-23 15.5z" />
<glyph unicode="&#xe2;" horiz-adv-x="540" d="M-29 199q0 79 38 159t108.5 135.5t152.5 55.5q14 0 27.5 -2t22.5 -4.5t20.5 -7.5t16.5 -8t17 -10t15 -9l8 24q12 0 56.5 -36t44.5 -66q0 -15 -21 -63h-2q-71 -129 -91 -188q-19 -57 -19 -103q0 -68 28 -68q33 0 77.5 60t78.5 168q0 2 12 2q10 -7 10 -9q0 -11 -13.5 -51.5 t-36.5 -91.5t-61.5 -90t-80.5 -39q-35 0 -65.5 28.5t-43.5 86.5q-1 -1 -7.5 -8.5t-8.5 -10t-9 -10t-11 -10.5t-12.5 -9t-15 -9t-16.5 -7.5t-19.5 -6.5t-22 -3.5t-25.5 -1.5q-44 0 -76 22t-47.5 56.5t-22 65.5t-6.5 59zM43 176q0 -133 102 -133q66 0 121 68q0 112 68 270 q-44 47 -84 47q-69 0 -138 -81.5t-69 -170.5zM143 711l9 12q48 -16 92 -16q41 0 70.5 16.5t45.5 32.5t25 16q20 0 30 -13t12 -29.5t16.5 -36.5t41.5 -31q16 -8 35 -13.5t31.5 -7t24.5 -3t14 -1.5v-2q0 -3 3 -6t3 -4q0 -13 -61 -13q-44 0 -89 18.5t-73 61.5q-38 -28 -97 -28 q-32 0 -64.5 10.5t-50.5 21t-18 15.5z" />
<glyph unicode="&#xe3;" horiz-adv-x="540" d="M-29 199q0 79 38 159t108.5 135.5t152.5 55.5q14 0 27.5 -2t22.5 -4.5t20.5 -7.5t16.5 -8t17 -10t15 -9l8 24q12 0 56.5 -36t44.5 -66q0 -15 -21 -63h-2q-71 -129 -91 -188q-19 -57 -19 -103q0 -68 28 -68q33 0 77.5 60t78.5 168q0 2 12 2q10 -7 10 -9q0 -11 -13.5 -51.5 t-36.5 -91.5t-61.5 -90t-80.5 -39q-35 0 -65.5 28.5t-43.5 86.5q-1 -1 -7.5 -8.5t-8.5 -10t-9 -10t-11 -10.5t-12.5 -9t-15 -9t-16.5 -7.5t-19.5 -6.5t-22 -3.5t-25.5 -1.5q-44 0 -76 22t-47.5 56.5t-22 65.5t-6.5 59zM43 176q0 -133 102 -133q66 0 121 68q0 112 68 270 q-44 47 -84 47q-69 0 -138 -81.5t-69 -170.5zM174 688q0 28 17.5 45t41.5 17q36 0 102 -12.5t85 -12.5q17 0 26 1t21 6.5t18.5 19t8.5 36.5q12 0 25 -2t27.5 -13t14.5 -30q0 -30 -26 -57t-80 -27q-18 0 -40 5t-36.5 10t-38.5 14.5t-31 11.5q-11 3 -26.5 8.5t-27.5 9t-24 3.5 q-16 0 -25 -7.5t-11 -14.5t-2 -13q0 -5 1 -10l1 -6l-3 -3q-2 -3 -8 -3l-6 6q-4 12 -4 18z" />
<glyph unicode="&#xe4;" horiz-adv-x="540" d="M-29 199q0 79 38 159t108.5 135.5t152.5 55.5q14 0 27.5 -2t22.5 -4.5t20.5 -7.5t16.5 -8t17 -10t15 -9l8 24q12 0 56.5 -36t44.5 -66q0 -15 -21 -63h-2q-71 -129 -91 -188q-19 -57 -19 -103q0 -68 28 -68q33 0 77.5 60t78.5 168q0 2 12 2q10 -7 10 -9q0 -11 -13.5 -51.5 t-36.5 -91.5t-61.5 -90t-80.5 -39q-35 0 -65.5 28.5t-43.5 86.5q-1 -1 -7.5 -8.5t-8.5 -10t-9 -10t-11 -10.5t-12.5 -9t-15 -9t-16.5 -7.5t-19.5 -6.5t-22 -3.5t-25.5 -1.5q-44 0 -76 22t-47.5 56.5t-22 65.5t-6.5 59zM43 176q0 -133 102 -133q66 0 121 68q0 112 68 270 q-44 47 -84 47q-69 0 -138 -81.5t-69 -170.5zM254 647q0 5 8 24t8 64q0 9 -4 21q1 -1 21 -1.5t37.5 -8t17.5 -25.5q0 -12 -2 -14q-7 -9 -14 -27q-15 -27 -15 -55q0 -15 2 -17h-12q-47 0 -47 39zM397 649q0 2 8.5 25.5t8.5 62.5q0 7 -4 19q1 -1 20.5 -2t37 -8.5t17.5 -22.5 q0 -4 -7.5 -14.5t-15 -31t-7.5 -50.5q0 -15 2 -19h-13q-47 0 -47 41z" />
<glyph unicode="&#xe5;" horiz-adv-x="540" d="M-29 199q0 79 38 159t108.5 135.5t152.5 55.5q14 0 27.5 -2t22.5 -4.5t20.5 -7.5t16.5 -8t17 -10t15 -9l8 24q12 0 56.5 -36t44.5 -66q0 -15 -21 -63h-2q-71 -129 -91 -188q-19 -57 -19 -103q0 -68 28 -68q33 0 77.5 60t78.5 168q0 2 12 2q10 -7 10 -9q0 -11 -13.5 -51.5 t-36.5 -91.5t-61.5 -90t-80.5 -39q-35 0 -65.5 28.5t-43.5 86.5q-1 -1 -7.5 -8.5t-8.5 -10t-9 -10t-11 -10.5t-12.5 -9t-15 -9t-16.5 -7.5t-19.5 -6.5t-22 -3.5t-25.5 -1.5q-44 0 -76 22t-47.5 56.5t-22 65.5t-6.5 59zM43 176q0 -133 102 -133q66 0 121 68q0 112 68 270 q-44 47 -84 47q-69 0 -138 -81.5t-69 -170.5zM326 678q0 21 8 39q19 27 65.5 15.5t65.5 -38.5q2 -2 2 -8q0 -8 -16 -45q-3 -9 -13 -12q-72 -4 -112 49zM365 680q14 -23 51 -23q0 1 2 3.5t2 3.5q6 15 6 20v4q-8 11 -29 16t-28 -6q-4 -12 -4 -18z" />
<glyph unicode="&#xe7;" d="M-117 -20q0 19 14 28.5t33 12.5t21 4q8 -46 26 -56q8 -8 23 -8h-2q20 -4 25 -4q24 0 24 25q0 7 -20.5 34t-20.5 39q0 10 3 19t6 14l3 4q0 -2 2 -2q1 0 2.5 -1t2.5 -1q2 -2 6 -2v-7q0 -13 2 -19.5t12.5 -17t36.5 -30.5q12 -12 12 -35q-12 -81 -94 -81q-31 0 -54 8.5 t-34.5 19.5t-18.5 24t-8.5 20.5t-1.5 11.5zM-27 190q0 134 61 234t183 141q18 6 37 6q42 0 71.5 -22.5t42 -55.5t17 -55t4.5 -35q0 -34 -8 -68t-30 -62.5t-54 -28.5q-28 0 -64 12q-5 2 -16 6t-16 6q39 49 51 103q6 21 6 41q0 32 -25 32q-29 0 -70.5 -37t-74.5 -98.5 t-33 -120.5q0 -63 36.5 -104t92.5 -41q86 0 187 90q34 27 54 50.5t23.5 35.5t8.5 18.5t16 6.5q6 -3 6 -8q-20 -90 -125.5 -171t-197.5 -81q-58 0 -101 33t-62.5 78.5t-19.5 94.5z" />
<glyph unicode="&#xe8;" horiz-adv-x="436" d="M-25 199q0 90 39 174.5t103 136t133 51.5q62 0 99.5 -35.5t37.5 -81.5q0 -87 -69 -151t-164 -64q-63 0 -88 25q-13 -41 -13 -74q0 -60 36.5 -104.5t94.5 -44.5q70 0 164 67q23 17 40 32.5t25 25t13.5 17t8 10.5t5.5 3q7 0 9 -2q4 -4 4 -8q-26 -50 -72 -100 q-95 -99 -215 -99q-51 0 -90 22.5t-60 57.5t-31 71.5t-10 70.5zM74 285q4 -2 26 -2q57 0 107.5 47.5t50.5 85.5q0 26 -29 26q-51 0 -104 -67q-35 -53 -51 -90zM121 737q0 11 20 39q18 18 23 21q10 -18 39 -54l7 -7l10.5 -10.5t12.5 -11t16.5 -12t20 -10.5t25 -9.5t29 -6 t34.5 -2.5q35 0 99 16h2v-2q0 -4 2 -4l4 -7v-1q0 -5 -23 -15.5t-64.5 -20t-80.5 -9.5q-33 0 -71.5 10t-71.5 35.5t-33 60.5z" />
<glyph unicode="&#xe9;" horiz-adv-x="436" d="M-25 199q0 90 39 174.5t103 136t133 51.5q62 0 99.5 -35.5t37.5 -81.5q0 -87 -69 -151t-164 -64q-63 0 -88 25q-13 -41 -13 -74q0 -60 36.5 -104.5t94.5 -44.5q70 0 164 67q23 17 40 32.5t25 25t13.5 17t8 10.5t5.5 3q7 0 9 -2q4 -4 4 -8q-26 -50 -72 -100 q-95 -99 -215 -99q-51 0 -90 22.5t-60 57.5t-31 71.5t-10 70.5zM74 285q4 -2 26 -2q57 0 107.5 47.5t50.5 85.5q0 26 -29 26q-51 0 -104 -67q-35 -53 -51 -90zM121 676l4 8q0 1 1 2t1 2l2 2q64 -16 98 -16q16 0 30.5 1.5t27 5.5t23 7.5t20 9t16 10t14 11t10.5 9.5l8.5 8.5 l6.5 6.5q29 36 39 54q6 0 25.5 -27.5t19.5 -44.5q0 -32 -34.5 -55t-72.5 -31t-71 -8q-39 0 -80.5 9.5t-64.5 20t-23 15.5z" />
<glyph unicode="&#xea;" horiz-adv-x="436" d="M-25 199q0 90 39 174.5t103 136t133 51.5q62 0 99.5 -35.5t37.5 -81.5q0 -87 -69 -151t-164 -64q-63 0 -88 25q-13 -41 -13 -74q0 -60 36.5 -104.5t94.5 -44.5q70 0 164 67q23 17 40 32.5t25 25t13.5 17t8 10.5t5.5 3q7 0 9 -2q4 -4 4 -8q-26 -50 -72 -100 q-95 -99 -215 -99q-51 0 -90 22.5t-60 57.5t-31 71.5t-10 70.5zM72 694l8 13q51 -17 92 -17t70.5 16.5t45.5 33t25 16.5q20 0 30 -13t12.5 -30t17 -37t41.5 -31q16 -8 34.5 -13t31 -7t24.5 -3t14 -1v-3q0 -4 3 -7l3 -3q0 -12 -61 -12q-44 0 -89 18.5t-73 61.5 q-39 -29 -96 -29q-32 0 -64.5 10.5t-50.5 21t-18 15.5zM74 285q4 -2 26 -2q57 0 107.5 47.5t50.5 85.5q0 26 -29 26q-51 0 -104 -67q-35 -53 -51 -90z" />
<glyph unicode="&#xeb;" horiz-adv-x="436" d="M-25 199q0 90 39 174.5t103 136t133 51.5q62 0 99.5 -35.5t37.5 -81.5q0 -87 -69 -151t-164 -64q-63 0 -88 25q-13 -41 -13 -74q0 -60 36.5 -104.5t94.5 -44.5q70 0 164 67q23 17 40 32.5t25 25t13.5 17t8 10.5t5.5 3q7 0 9 -2q4 -4 4 -8q-26 -50 -72 -100 q-95 -99 -215 -99q-51 0 -90 22.5t-60 57.5t-31 71.5t-10 70.5zM74 285q4 -2 26 -2q57 0 107.5 47.5t50.5 85.5q0 26 -29 26q-51 0 -104 -67q-35 -53 -51 -90zM178 647q0 5 8.5 24t8.5 64q0 6 -5 21q1 -1 21 -1.5t37.5 -8t17.5 -25.5q0 -12 -2 -14q-7 -9 -14 -27 q-14 -25 -14 -55q0 -15 2 -17h-13q-47 0 -47 39zM322 649q0 2 8 25.5t8 62.5q0 7 -4 19q1 -1 20.5 -2t37.5 -8.5t18 -22.5q0 -4 -8 -14.5t-15.5 -31t-7.5 -50.5q0 -15 2 -19h-12q-47 0 -47 41z" />
<glyph unicode="&#xec;" horiz-adv-x="251" d="M-37 145q0 72 28.5 160.5t61 159t35.5 86.5q-1 -2 3.5 -5t13 -7t19.5 -10t21.5 -14.5t20 -18.5t15 -24.5t5.5 -31.5q0 -24 -20 -53h-2q-3 -6 -17.5 -33t-19.5 -36t-17.5 -34t-17 -37t-13.5 -34t-12.5 -36.5t-6.5 -33t-3 -34.5q0 -27 7 -39.5t28 -12.5q40 0 90 46t88 133 q2 0 4 2q8 0 15 -7l4 -4q0 -11 -19 -60q-55 -146 -162 -168q-16 -3 -34 -3q-53 0 -84 41q-31 42 -31 108zM-10 737q0 11 20 39q18 18 23 21q11 -18 39 -54l7 -7l10.5 -10.5t12.5 -11t16.5 -12t20 -10.5t25 -9.5t29 -6t34.5 -2.5q35 0 99 16h2v-2q0 -4 2 -4l4 -7v-1 q0 -5 -23 -15.5t-64.5 -20t-80.5 -9.5q-33 0 -71.5 10t-71.5 35.5t-33 60.5z" />
<glyph unicode="&#xed;" horiz-adv-x="251" d="M-37 145q0 72 28.5 160.5t61 159t35.5 86.5q-1 -2 3.5 -5t13 -7t19.5 -10t21.5 -14.5t20 -18.5t15 -24.5t5.5 -31.5q0 -24 -20 -53h-2q-3 -6 -17.5 -33t-19.5 -36t-17.5 -34t-17 -37t-13.5 -34t-12.5 -36.5t-6.5 -33t-3 -34.5q0 -27 7 -39.5t28 -12.5q40 0 90 46t88 133 q2 0 4 2q8 0 15 -7l4 -4q0 -11 -19 -60q-55 -146 -162 -168q-16 -3 -34 -3q-53 0 -84 41q-31 42 -31 108zM-12 676l4 8q0 1 1 2t1 2l2 2q64 -16 98 -16q16 0 30.5 1.5t27 5.5t23 7.5t20 9t16 10t14 11t10.5 9.5l8.5 8.5l6.5 6.5q28 36 39 54q6 0 25.5 -27.5t19.5 -44.5 q0 -32 -34.5 -55t-72.5 -31t-71 -8q-39 0 -80.5 9.5t-64.5 20t-23 15.5z" />
<glyph unicode="&#xee;" horiz-adv-x="251" d="M-63 676l8 12q48 -16 92 -16q32 0 58 10t38.5 22.5t24.5 22.5t20 10q20 0 30 -13t12.5 -29.5t17 -36.5t41.5 -31q16 -8 34.5 -13.5t31 -7t24.5 -3t14 -1.5v-2q0 -4 3 -7l3 -3q0 -12 -61 -12q-111 0 -162 79q-38 -28 -96 -28q-32 0 -64.5 10.5t-50.5 21t-18 15.5zM-37 145 q0 72 28.5 160.5t61 159t35.5 86.5q-1 -2 3.5 -5t13 -7t19.5 -10t21.5 -14.5t20 -18.5t15 -24.5t5.5 -31.5q0 -24 -20 -53h-2q-3 -6 -17.5 -33t-19.5 -36t-17.5 -34t-17 -37t-13.5 -34t-12.5 -36.5t-6.5 -33t-3 -34.5q0 -27 7 -39.5t28 -12.5q40 0 90 46t88 133q2 0 4 2 q8 0 15 -7l4 -4q0 -11 -19 -60q-55 -146 -162 -168q-16 -3 -34 -3q-53 0 -84 41q-31 42 -31 108z" />
<glyph unicode="&#xef;" horiz-adv-x="251" d="M-37 145q0 72 28.5 160.5t61 159t35.5 86.5q-1 -2 3.5 -5t13 -7t19.5 -10t21.5 -14.5t20 -18.5t15 -24.5t5.5 -31.5q0 -24 -20 -53h-2q-3 -6 -17.5 -33t-19.5 -36t-17.5 -34t-17 -37t-13.5 -34t-12.5 -36.5t-6.5 -33t-3 -34.5q0 -27 7 -39.5t28 -12.5q40 0 90 46t88 133 q2 0 4 2q8 0 15 -7l4 -4q0 -11 -19 -60q-55 -146 -162 -168q-16 -3 -34 -3q-53 0 -84 41q-31 42 -31 108zM45 647q0 5 8 24t8 64q0 9 -4 21q1 -1 21 -1.5t37.5 -8t17.5 -25.5q0 -12 -2 -14q-7 -9 -14 -27q-15 -27 -15 -55q0 -15 2 -17h-12q-47 0 -47 39zM188 649 q0 2 8.5 25.5t8.5 62.5q0 7 -4 19q1 -1 20.5 -2t37 -8.5t17.5 -22.5q0 -4 -7.5 -14.5t-15 -31t-7.5 -50.5q0 -15 2 -19h-12q-48 0 -48 41z" />
<glyph unicode="&#xf1;" horiz-adv-x="499" d="M-49 80q0 43 8 90t19.5 85t26.5 76.5t26.5 63t22.5 46.5l12 24q15 31 40 106q17 0 56 -37.5t39 -66.5q0 -30 -24.5 -77.5t-54.5 -92.5t-54.5 -106.5t-24.5 -116.5q0 -19 2 -25q91 174 163.5 288t103 147.5t50 61.5t27.5 64q5 0 27 -15t44.5 -40.5t22.5 -46.5 q0 -33 -14 -47q-12 -25 -51.5 -91.5t-62.5 -121.5t-23 -105q0 -27 5.5 -40t22.5 -13q30 0 74 45.5t82 132.5q2 0 4 2q6 0 12 -6l5 -4q0 -4 -8 -27t-25 -57.5t-39 -67.5t-54.5 -56t-66.5 -23q-47 0 -78 41q-28 42 -28 108q0 50 10.5 91t34.5 108q-9 -16 -35 -64t-45 -83.5 t-41.5 -79.5t-36.5 -76.5t-19 -50.5q0 -3 -8.5 -21.5t-27 -38.5t-37.5 -20q-46 0 -64 35t-18 102zM90 688q0 28 18 45t42 17q36 0 101.5 -12.5t84.5 -12.5q17 0 26 1t21 6.5t18.5 19t8.5 36.5q12 0 25 -2t27.5 -13t14.5 -30q0 -30 -26 -57t-80 -27q-18 0 -40 5t-36.5 10 t-38.5 14.5t-31 11.5q-11 3 -26.5 8.5t-27.5 9t-24 3.5q-16 0 -25 -7.5t-11 -14.5t-2 -13q0 -5 1 -10l1 -6l-3 -3q-2 -3 -8 -3l-6 6q-4 12 -4 18z" />
<glyph unicode="&#xf2;" d="M-25 186q0 73 26 141t61.5 111t66 68.5t45.5 30.5q11 0 35 -37q46 32 90 32q57 0 88 -45.5t31 -85.5q2 -14 2 -39q0 -124 -96 -247q12 -4 24 -4q29 0 66 23.5t41 23.5q6 0 6 -11q0 -27 -35 -59.5t-104 -32.5q-19 0 -52 11q-17 -22 -55 -46t-82 -24q-77 0 -117.5 59.5 t-40.5 130.5zM53 158q0 -102 86 -111q32 0 80 43q-88 53 -88 203q0 19 4 51q-82 -85 -82 -186zM98 737q0 10 21 39q19 20 22 21q11 -18 39 -54l6.5 -6.5l8.5 -8.5t10.5 -9.5t14 -11t16 -10t20 -9t23 -7.5t27 -5.5t30.5 -1.5q34 0 98 16h2v-2q0 -4 2 -4l4 -7v-1 q0 -5 -23 -15.5t-64.5 -20t-80.5 -9.5q-33 0 -71.5 10t-71.5 35.5t-33 60.5zM223 242q0 -32 9.5 -63t31.5 -38q35 47 49 117q9 24 9 55q0 82 -17 88q-29 0 -55.5 -54.5t-26.5 -104.5z" />
<glyph unicode="&#xf3;" d="M-25 186q0 73 26 141t61.5 111t66 68.5t45.5 30.5q11 0 35 -37q46 32 90 32q57 0 88 -45.5t31 -85.5q2 -14 2 -39q0 -124 -96 -247q12 -4 24 -4q29 0 66 23.5t41 23.5q6 0 6 -11q0 -27 -35 -59.5t-104 -32.5q-19 0 -52 11q-17 -22 -55 -46t-82 -24q-77 0 -117.5 59.5 t-40.5 130.5zM53 158q0 -102 86 -111q32 0 80 43q-88 53 -88 203q0 19 4 51q-82 -85 -82 -186zM98 676l4 8q0 1 1 2t1 2l2 2q64 -16 99 -16q18 0 34.5 2.5t29 6t25 9.5t20 10.5t16.5 12t12.5 11l10.5 10.5l7 7q28 36 39 54q6 0 25.5 -27.5t19.5 -44.5q0 -32 -34.5 -55 t-72.5 -31t-71 -8q-39 0 -80.5 9.5t-64.5 20t-23 15.5zM223 242q0 -32 9.5 -63t31.5 -38q35 47 49 117q9 24 9 55q0 82 -17 88q-29 0 -55.5 -54.5t-26.5 -104.5z" />
<glyph unicode="&#xf4;" d="M-25 186q0 73 26 141t61.5 111t66 68.5t45.5 30.5q11 0 35 -37q46 32 90 32q57 0 88 -45.5t31 -85.5q2 -14 2 -39q0 -124 -96 -247q12 -4 24 -4q29 0 66 23.5t41 23.5q6 0 6 -11q0 -27 -35 -59.5t-104 -32.5q-19 0 -52 11q-17 -22 -55 -46t-82 -24q-77 0 -117.5 59.5 t-40.5 130.5zM49 700l8 13q51 -17 93 -17q41 0 70.5 16.5t45.5 33t25 16.5q20 0 30 -13t12 -30t16.5 -37t41.5 -31q16 -8 35 -13t31.5 -7t24.5 -3t14 -1v-2q0 -3 3 -7l3 -4q0 -12 -62 -12q-44 0 -88.5 18.5t-72.5 61.5q-39 -29 -97 -29q-32 0 -64.5 10.5t-50.5 21t-18 15.5z M53 158q0 -102 86 -111q32 0 80 43q-88 53 -88 203q0 19 4 51q-82 -85 -82 -186zM223 242q0 -32 9.5 -63t31.5 -38q35 47 49 117q9 24 9 55q0 82 -17 88q-29 0 -55.5 -54.5t-26.5 -104.5z" />
<glyph unicode="&#xf5;" d="M-25 186q0 73 26 141t61.5 111t66 68.5t45.5 30.5q11 0 35 -37q46 32 90 32q57 0 88 -45.5t31 -85.5q2 -14 2 -39q0 -124 -96 -247q12 -4 24 -4q29 0 66 23.5t41 23.5q6 0 6 -11q0 -27 -35 -59.5t-104 -32.5q-19 0 -52 11q-17 -22 -55 -46t-82 -24q-77 0 -117.5 59.5 t-40.5 130.5zM53 158q0 -102 86 -111q32 0 80 43q-88 53 -88 203q0 19 4 51q-82 -85 -82 -186zM76 688q0 28 17.5 45t41.5 17q36 0 102 -12.5t85 -12.5q23 0 34.5 2t23.5 16.5t15 44.5q13 0 25.5 -2t27.5 -13t15 -30q0 -30 -26.5 -57t-80.5 -27q-18 0 -40 5t-36 10t-38 14 t-31 12q-11 3 -26.5 8.5t-27.5 9t-24 3.5q-23 0 -31 -12t-8 -23q0 -5 1 -10l1 -6l-2 -3q-2 -3 -8 -3l-6 6q-4 12 -4 18zM223 242q0 -32 9.5 -63t31.5 -38q35 47 49 117q9 24 9 55q0 82 -17 88q-29 0 -55.5 -54.5t-26.5 -104.5z" />
<glyph unicode="&#xf6;" d="M-25 186q0 73 26 141t61.5 111t66 68.5t45.5 30.5q11 0 35 -37q46 32 90 32q57 0 88 -45.5t31 -85.5q2 -14 2 -39q0 -124 -96 -247q12 -4 24 -4q29 0 66 23.5t41 23.5q6 0 6 -11q0 -27 -35 -59.5t-104 -32.5q-19 0 -52 11q-17 -22 -55 -46t-82 -24q-77 0 -117.5 59.5 t-40.5 130.5zM53 158q0 -102 86 -111q32 0 80 43q-88 53 -88 203q0 19 4 51q-82 -85 -82 -186zM156 647q0 5 8 24t8 64q0 9 -4 21q1 -1 21 -1.5t37.5 -8t17.5 -25.5q0 -12 -2 -14q-9 -12 -15 -27q-14 -25 -14 -55q0 -15 2 -17h-12q-47 0 -47 39zM223 242q0 -32 9.5 -63 t31.5 -38q35 47 49 117q9 24 9 55q0 82 -17 88q-29 0 -55.5 -54.5t-26.5 -104.5zM299 649q0 2 8 25.5t8 62.5q0 7 -4 19q1 -1 20.5 -2t37.5 -8.5t18 -22.5q0 -4 -7.5 -14.5t-15.5 -31t-8 -50.5q0 -15 2 -19h-12q-47 0 -47 41z" />
<glyph unicode="&#xf7;" horiz-adv-x="489" d="M58 394q0 5 0.5 8t2 8.5t5.5 9.5t11 8t18.5 6t27.5 2q100 0 143 2q148 4 158 17q0 -7 2 -13q0 -4 1 -13t1 -13v-5q0 -11 -0.5 -16t-4.5 -12.5t-13 -10.5t-25 -3q-10 1 -32.5 2t-33.5 2q-78 4 -135 4q-97 0 -121 -12q-2 2 -2 8q-2 2 -2 16zM188 252q0 4 9.5 24.5t9.5 55.5 q0 4 -4 16q18 0 28 -2q31 -4 39 -12q0 -2 2 -4q4 -4 4 -13q0 -10 -2 -12q-3 -4 -8 -12t-8 -12q-14 -22 -14 -50q0 -10 2 -12q-1 0 -8.5 -0.5t-12 -0.5t-12.5 2t-13 5t-8.5 10t-3.5 17zM242 496q0 2 9 25t9 59q0 12 -2 14q1 -1 19.5 -1.5t35.5 -7.5t17 -22q0 -10 -2 -14 q-8 -10 -15 -25q-14 -22 -14 -47q0 -12 2 -14q-39 0 -51 12l-4 4q-4 12 -4 17z" />
<glyph unicode="&#xf8;" d="M-25 186q0 73 26 141t61.5 111t66 68.5t45.5 30.5q11 0 35 -37q46 32 90 32q57 0 88 -45.5t31 -85.5q2 -14 2 -39q0 -124 -96 -247q12 -4 24 -4q29 0 66 23.5t41 23.5q6 0 6 -11q0 -27 -35 -59.5t-104 -32.5q-19 0 -52 11q-17 -22 -55 -46t-82 -24q-77 0 -117.5 59.5 t-40.5 130.5zM53 158q0 -102 86 -111q32 0 80 43q-88 53 -88 203q0 19 4 51q-82 -85 -82 -186zM63 -20q0 -2 3 -5q2 -2 6 -2q2 -2 4 -2q-1 1 34.5 83t90.5 218.5t88 243.5q7 16 4.5 28t-6.5 18.5t-15 12t-20 8t-21.5 6.5t-19.5 7q0 -25 -4 -57q-7 -38 -70 -285t-74 -274z M223 242q0 -32 9.5 -63t31.5 -38q35 47 49 117q9 24 9 55q0 82 -17 88q-29 0 -55.5 -54.5t-26.5 -104.5z" />
<glyph unicode="&#xf9;" horiz-adv-x="505" d="M-27 147q0 129 111 363h-2q18 31 22 41q14 23 29 63q5 0 27 -15t44.5 -41t22.5 -48q0 -23 -39.5 -95.5t-79.5 -159.5t-40 -146q0 -29 7.5 -43.5t30.5 -14.5q33 0 72 37t72 113q17 90 80 227q3 7 9 20.5t9 20.5q10 23 25 63q12 0 56 -36.5t44 -67.5q0 -24 -33 -86 t-66.5 -136.5t-33.5 -129.5q0 -68 29 -68q32 0 76.5 60t78.5 168q0 2 13 2q10 -7 10 -9q0 -11 -13.5 -51.5t-37 -91.5t-62 -90t-80.5 -39q-43 0 -77.5 45.5t-34.5 114.5q-73 -121 -162 -121q-42 0 -74.5 41t-32.5 110zM160 737q0 11 20 39q18 18 23 21q11 -18 39 -54l7 -7 l10.5 -10.5t12.5 -11t16.5 -12t20 -10.5t25 -9.5t29 -6t34.5 -2.5q35 0 99 16h2v-2q0 -4 2 -4l4 -7v-1q0 -5 -23 -15.5t-64.5 -20t-80.5 -9.5q-33 0 -71.5 10t-71.5 35.5t-33 60.5z" />
<glyph unicode="&#xfa;" horiz-adv-x="505" d="M-27 147q0 129 111 363h-2q18 31 22 41q14 23 29 63q5 0 27 -15t44.5 -41t22.5 -48q0 -23 -39.5 -95.5t-79.5 -159.5t-40 -146q0 -29 7.5 -43.5t30.5 -14.5q33 0 72 37t72 113q17 90 80 227q3 7 9 20.5t9 20.5q10 23 25 63q12 0 56 -36.5t44 -67.5q0 -24 -33 -86 t-66.5 -136.5t-33.5 -129.5q0 -68 29 -68q32 0 76.5 60t78.5 168q0 2 13 2q10 -7 10 -9q0 -11 -13.5 -51.5t-37 -91.5t-62 -90t-80.5 -39q-43 0 -77.5 45.5t-34.5 114.5q-73 -121 -162 -121q-42 0 -74.5 41t-32.5 110zM166 676l4 8q0 1 1 2t1 2l2 2q64 -16 98 -16 q16 0 30.5 1.5t27 5.5t23 7.5t20 9t16 10t14 11t10.5 9.5l8.5 8.5l6.5 6.5q28 36 39 54q6 0 25.5 -27.5t19.5 -44.5q0 -32 -34.5 -55t-72.5 -31t-71 -8q-39 0 -80.5 9.5t-64.5 20t-23 15.5z" />
<glyph unicode="&#xfb;" horiz-adv-x="505" d="M-27 147q0 129 111 363h-2q18 31 22 41q14 23 29 63q5 0 27 -15t44.5 -41t22.5 -48q0 -23 -39.5 -95.5t-79.5 -159.5t-40 -146q0 -29 7.5 -43.5t30.5 -14.5q33 0 72 37t72 113q17 90 80 227q3 7 9 20.5t9 20.5q10 23 25 63q12 0 56 -36.5t44 -67.5q0 -24 -33 -86 t-66.5 -136.5t-33.5 -129.5q0 -68 29 -68q32 0 76.5 60t78.5 168q0 2 13 2q10 -7 10 -9q0 -11 -13.5 -51.5t-37 -91.5t-62 -90t-80.5 -39q-43 0 -77.5 45.5t-34.5 114.5q-73 -121 -162 -121q-42 0 -74.5 41t-32.5 110zM106 676l9 12q48 -16 92 -16q32 0 58 10t38.5 22.5 t24.5 22.5t20 10q20 0 30 -13t12.5 -29.5t17 -36.5t41.5 -31q16 -8 34.5 -13.5t31 -7t24.5 -3t14 -1.5v-2q0 -4 3 -7l3 -3q0 -12 -61 -12q-111 0 -162 79q-38 -28 -96 -28q-32 0 -65 10.5t-51 21t-18 15.5z" />
<glyph unicode="&#xfc;" horiz-adv-x="505" d="M-27 147q0 129 111 363h-2q18 31 22 41q14 23 29 63q5 0 27 -15t44.5 -41t22.5 -48q0 -23 -39.5 -95.5t-79.5 -159.5t-40 -146q0 -29 7.5 -43.5t30.5 -14.5q33 0 72 37t72 113q17 90 80 227q3 7 9 20.5t9 20.5q10 23 25 63q12 0 56 -36.5t44 -67.5q0 -24 -33 -86 t-66.5 -136.5t-33.5 -129.5q0 -68 29 -68q32 0 76.5 60t78.5 168q0 2 13 2q10 -7 10 -9q0 -11 -13.5 -51.5t-37 -91.5t-62 -90t-80.5 -39q-43 0 -77.5 45.5t-34.5 114.5q-73 -121 -162 -121q-42 0 -74.5 41t-32.5 110zM215 647q0 5 8 24t8 64q0 9 -4 21q1 -1 21 -1.5 t37.5 -8t17.5 -25.5q0 -12 -2 -14q-7 -9 -14 -27q-15 -27 -15 -55q0 -15 2 -17h-12q-47 0 -47 39zM358 649q0 2 8.5 25.5t8.5 62.5q0 7 -4 19q1 -1 20.5 -2t37 -8.5t17.5 -22.5q0 -4 -7.5 -14.5t-15 -31t-7.5 -50.5q0 -15 2 -19h-12q-48 0 -48 41z" />
<glyph unicode="&#xfd;" horiz-adv-x="563" d="M-94 -137q0 37 20 63.5t49.5 38t52.5 16.5t40 5q12 0 30.5 -1t26.5 -1q16 0 26.5 2t18 10.5t9.5 12t8 20.5t8 22q-55 -55 -113 -55q-41 0 -74 40t-33 109q0 83 37 188.5t72 168.5l45 106q12 0 54 -35t42 -65q0 -23 -38.5 -95t-76.5 -158.5t-38 -143.5q0 -62 39 -62 q40 0 88 58.5t86 179.5q21 71 40.5 120t29.5 69.5t12 33.5q92 -42 92 -109q0 -22 -15 -49q-59 -105 -72 -146q-16 -48 -16 -97q0 -28 6.5 -40t28.5 -12q40 0 91 46t89 133q2 0 4 2q7 0 9 -2q8 -5 8 -9v2l-6 -24q-7 -24 -21 -58.5t-36.5 -68.5t-61.5 -58t-88 -24 q-53 0 -84 39q-5 -13 -16 -34t-13 -26q153 -36 250 -36q25 0 31 2q0 -45 -27 -79t-74 -34q-12 0 -25.5 1.5t-31.5 5.5t-30.5 6.5t-35.5 9.5t-33.5 10t-37.5 11.5t-35 10.5q-73 -127 -184 -127q-14 0 -29.5 2.5t-40.5 11.5t-41 33t-16 60zM-53 -147q0 -25 20 -38.5t47 -13.5 q63 0 115 90q6 3 23 3q4 0 11.5 -1.5t10.5 -1.5h10l-51 13q-78 15 -92 16q-40 0 -67 -16.5t-27 -50.5zM170 676l4 8q0 1 1 2t1 2l2 2q64 -16 98 -16q16 0 30.5 1.5t27 5.5t23 7.5t20 9t16 10t14 11t10.5 9.5l8.5 8.5l6.5 6.5q28 36 39 54q6 0 25.5 -27.5t19.5 -44.5 q0 -32 -34.5 -55t-72.5 -31t-71 -8q-39 0 -80.5 9.5t-64.5 20t-23 15.5z" />
<glyph unicode="&#xff;" horiz-adv-x="563" d="M-94 -137q0 37 20 63.5t49.5 38t52.5 16.5t40 5q12 0 30.5 -1t26.5 -1q16 0 26.5 2t18 10.5t9.5 12t8 20.5t8 22q-55 -55 -113 -55q-41 0 -74 40t-33 109q0 83 37 188.5t72 168.5l45 106q12 0 54 -35t42 -65q0 -23 -38.5 -95t-76.5 -158.5t-38 -143.5q0 -62 39 -62 q40 0 88 58.5t86 179.5q21 71 40.5 120t29.5 69.5t12 33.5q92 -42 92 -109q0 -22 -15 -49q-59 -105 -72 -146q-16 -48 -16 -97q0 -28 6.5 -40t28.5 -12q40 0 91 46t89 133q2 0 4 2q7 0 9 -2q8 -5 8 -9v2l-6 -24q-7 -24 -21 -58.5t-36.5 -68.5t-61.5 -58t-88 -24 q-53 0 -84 39q-5 -13 -16 -34t-13 -26q153 -36 250 -36q25 0 31 2q0 -45 -27 -79t-74 -34q-12 0 -25.5 1.5t-31.5 5.5t-30.5 6.5t-35.5 9.5t-33.5 10t-37.5 11.5t-35 10.5q-73 -127 -184 -127q-14 0 -29.5 2.5t-40.5 11.5t-41 33t-16 60zM-53 -147q0 -25 20 -38.5t47 -13.5 q63 0 115 90q6 3 23 3q4 0 11.5 -1.5t10.5 -1.5h10l-51 13q-78 15 -92 16q-40 0 -67 -16.5t-27 -50.5zM225 647q0 5 8.5 24t8.5 64q0 9 -4 21q1 -1 21 -2t37 -8t17 -25q0 -12 -2 -14q-7 -9 -14 -27q-14 -25 -14 -55q0 -15 2 -17h-13q-47 0 -47 39zM369 649q0 2 8 25.5 t8 62.5q0 7 -4 19q1 -1 20.5 -2t37.5 -8.5t18 -22.5q0 -4 -7.5 -14.5t-15.5 -31t-8 -50.5q0 -15 2 -19h-12q-47 0 -47 41z" />
<glyph unicode="&#x153;" horiz-adv-x="749" d="M-25 186q0 73 26 141t61.5 111t66 68.5t45.5 30.5q11 0 35 -37q46 32 90 32q57 0 88 -45.5t31 -85.5q2 -10 2 -39q-31 -143 -53 -189.5t-97 -106.5q-17 -22 -55 -46t-82 -24q-77 0 -117.5 59.5t-40.5 130.5zM53 158q0 -102 86 -111q32 0 80 43q-88 53 -88 203q0 19 4 51 q-82 -85 -82 -186zM223 242q0 -32 9.5 -63t31.5 -38q35 47 49 117q9 24 9 55q0 82 -17 88q-29 0 -55.5 -54.5t-26.5 -104.5zM309 199q0 90 39 174.5t103 136t133 51.5q62 0 99.5 -35.5t37.5 -81.5q0 -87 -69.5 -151t-164.5 -64q-63 0 -88 25q-12 -38 -12 -74 q0 -60 36.5 -104.5t94.5 -44.5q70 0 164 67q23 17 40 32.5t25 25t13.5 17t8 10.5t5.5 3q6 0 8 -2q4 -4 4 -8q-27 -53 -71 -100q-95 -99 -215 -99q-51 0 -90 22.5t-60 57.5t-31 71.5t-10 70.5zM408 285q4 -2 26 -2q57 0 107.5 47.5t50.5 85.5q0 26 -29 26q-51 0 -104 -67 q-35 -53 -51 -90z" />
<glyph unicode="&#x2c6;" horiz-adv-x="571" d="M61 676l9 12q48 -16 92 -16q32 0 58 10t38.5 22.5t24.5 22.5t20 10q20 0 30 -13t12 -29.5t16.5 -36.5t41.5 -31q16 -8 35 -13.5t31.5 -7t24.5 -3t14 -1.5v-2q0 -4 3 -7l3 -3q0 -12 -61 -12q-111 0 -162 79q-38 -28 -96 -28q-32 0 -65 10.5t-51 21t-18 15.5z" />
<glyph unicode="&#x2dc;" horiz-adv-x="514" d="M53 688q0 28 18 45t42 17q36 0 101.5 -12.5t84.5 -12.5q17 0 26 1t21 6.5t18.5 19t8.5 36.5q12 0 25 -2t27.5 -13t14.5 -30q0 -30 -26 -57t-80 -27q-18 0 -40 5t-36.5 10t-38.5 14.5t-31 11.5t-34 11.5t-43 9.5q-23 0 -31 -12t-8 -23q0 -5 1 -10l1 -6l-2 -3q-3 -3 -9 -3 l-6 6q-4 12 -4 18z" />
<glyph unicode="&#x2000;" horiz-adv-x="682" />
<glyph unicode="&#x2001;" horiz-adv-x="1365" />
<glyph unicode="&#x2002;" horiz-adv-x="682" />
<glyph unicode="&#x2003;" horiz-adv-x="1365" />
<glyph unicode="&#x2004;" horiz-adv-x="455" />
<glyph unicode="&#x2005;" horiz-adv-x="341" />
<glyph unicode="&#x2006;" horiz-adv-x="227" />
<glyph unicode="&#x2007;" horiz-adv-x="227" />
<glyph unicode="&#x2008;" horiz-adv-x="170" />
<glyph unicode="&#x2009;" horiz-adv-x="273" />
<glyph unicode="&#x200a;" horiz-adv-x="75" />
<glyph unicode="&#x2010;" horiz-adv-x="507" d="M66 401q0 35 67 35q100 0 143 2q148 4 158 17v-19q0 -4 1 -16.5t1 -20.5q0 -15 -8 -22.5t-35 -7.5q-10 1 -32 2t-33 2q-78 4 -135 4q-97 0 -121 -12l-4 12q-2 4 -2 24z" />
<glyph unicode="&#x2011;" horiz-adv-x="507" d="M66 401q0 35 67 35q100 0 143 2q148 4 158 17v-19q0 -4 1 -16.5t1 -20.5q0 -15 -8 -22.5t-35 -7.5q-10 1 -32 2t-33 2q-78 4 -135 4q-97 0 -121 -12l-4 12q-2 4 -2 24z" />
<glyph unicode="&#x2012;" horiz-adv-x="507" d="M66 401q0 35 67 35q100 0 143 2q148 4 158 17v-19q0 -4 1 -16.5t1 -20.5q0 -15 -8 -22.5t-35 -7.5q-10 1 -32 2t-33 2q-78 4 -135 4q-97 0 -121 -12l-4 12q-2 4 -2 24z" />
<glyph unicode="&#x2013;" horiz-adv-x="1161" d="M66 401q0 35 185 35q277 0 396 2q410 4 437 17v-19q0 -4 3 -16.5t3 -20.5q0 -15 -22 -22.5t-97 -7.5q-28 1 -88.5 2t-91.5 2q-216 4 -374 4q-268 0 -334 -12l-11 12q-6 4 -6 24z" />
<glyph unicode="&#x2014;" horiz-adv-x="2185" d="M66 401q0 35 371 35q553 0 791 2q820 4 875 17v-19q0 -4 5.5 -16.5t5.5 -20.5q0 -15 -44.5 -22.5t-193.5 -7.5q-55 1 -177 2t-183 2q-432 4 -747 4q-537 0 -670 -12l-22 12q-11 4 -11 24z" />
<glyph unicode="&#x2019;" horiz-adv-x="196" d="M123 604q1 2 9 8.5t22.5 20t27.5 31.5q41 55 41 118q0 46 -8 82h6q3 0 7.5 1t7.5 1q51 0 51 -61q0 -37 -15.5 -72.5t-38 -60t-46 -43.5t-40 -28t-20.5 -9q3 -1 1 1q-5 7 -5 11z" />
<glyph unicode="&#x202f;" horiz-adv-x="273" />
<glyph unicode="&#x205f;" horiz-adv-x="341" />
<glyph unicode="&#x25fc;" horiz-adv-x="583" d="M0 0v584h584v-584h-584z" />
<glyph unicode="&#xfb01;" horiz-adv-x="548" d="M-90 -180q0 51 10.5 114t31.5 137.5t36.5 123.5t43.5 129t34 98q-21 36 -42 69.5t-28.5 46t-7.5 15.5q0 10 12 10q18 -3 55.5 -7t55.5 -7q12 30 37 96.5t38 97.5l15 43q16 50 16 68q1 -1 15.5 -6.5t29.5 -13.5t32 -19.5t27.5 -26.5t10.5 -32q0 -22 -14 -56.5t-38.5 -85.5 t-35.5 -79q163 -21 164 -21q6 -2 4 -4t-181 -2q-22 -48 -71 -172q4 -9 25 -49.5t30.5 -62.5t24.5 -61.5t21.5 -79t6.5 -81.5q0 -60 -18.5 -113t-46.5 -88t-61 -61t-61 -38.5t-48 -14.5q-6 -2 -21 -2q-28 0 -48 10t-30.5 23t-16 34t-6.5 35t-1 33zM10 -188q0 -45 27 -45 q41 0 75 29.5t53.5 72.5t30.5 86t11 76q0 104 -68 252q-97 -249 -125 -418q-4 -32 -4 -53zM51 502q0 -2 4 -6q21 -27 25 -33q3 7 7 21.5t7 21.5q-43 0 -43 -4zM262 145q0 73 24.5 150.5t53 137.5t31.5 77q9 9 43.5 -2.5t54.5 -39.5t-6 -81q-3 -6 -17.5 -33t-19.5 -36 t-17.5 -34t-17 -37t-13.5 -34t-12.5 -36.5t-6.5 -33t-3 -34.5q0 -27 7 -39.5t28 -12.5q40 0 90 46t88 133q2 0 4 2q8 0 15 -7l4 -4q0 1 -1 -3q-36 -145 -121 -200q-42 -28 -93 -28q-56 0 -85.5 43.5t-29.5 105.5zM436 629q0 32 19.5 52.5t48.5 20.5t47 -18t18 -45 q0 -15 -6 -27q-11 -23 -31 -37t-43 -14q-27 0 -40 19.5t-13 48.5z" />
<glyph unicode="&#xfb02;" horiz-adv-x="479" d="M-90 -180q0 51 10.5 114t31.5 137.5t36.5 123.5t43.5 129t34 98q-21 36 -42 69.5t-28.5 46t-7.5 15.5q0 10 12 10q18 -3 55.5 -7t55.5 -7q12 30 37 96.5t38 97.5l15 43q16 50 16 68q1 -1 15.5 -6.5t29.5 -13.5t32 -19.5t27.5 -26.5t10.5 -32q0 -22 -14 -56.5t-38.5 -85.5 t-35.5 -79q38 -4 108 -7.5t113 -6.5t43 -7q0 -6 -47 -7.5t-134 0t-96 1.5q-22 -48 -71 -172q4 -9 25 -49.5t30.5 -62.5t24.5 -61.5t21.5 -79t6.5 -81.5q0 -60 -18.5 -113t-46.5 -88t-61 -61t-61 -38.5t-48 -14.5q-6 -2 -21 -2q-28 0 -48 10t-30.5 23t-16 34t-6.5 35t-1 33z M10 -188q0 -45 27 -45q41 0 75 29.5t53.5 72.5t30.5 86t11 76q0 104 -68 252q-97 -249 -125 -418q-4 -32 -4 -53zM52 500q0 -2 3 -4q21 -27 25 -33q3 7 7 21.5t7 21.5q-42 0 -42 -6zM205 -4q0 115 86.5 382.5t171.5 469.5q11 37 14 45q17 53 17 68q17 0 66.5 -33t49.5 -68 q0 -23 -22 -74q-295 -635 -295 -774q0 -16 6 -16q9 0 27.5 14t55.5 57.5t77 108.5q17 17 22 17q4 -4 4 -11q0 -25 -40 -90.5t-91.5 -122.5t-79.5 -57q-12 0 -20 1.5t-21 8.5t-20.5 26t-7.5 48z" />
</font>
</defs>
</svg>
